<?xml version="1.0" encoding="UTF-8"?> <svg xmlns="http://www.w3.org/2000/svg" id="Слой_1" data-name="Слой 1" viewBox="0 0 623.62 623.62"> <defs> <style>.cls-1,.cls-2{fill:#fff;}.cls-1{fill-rule:evenodd;}</style> </defs> <title>chili-logo</title> <path class="cls-1" d="M355.91,268.05c2,0,2.81,1.2,2.81,3a5.8,5.8,0,0,1-.8,2.61c-31.32,46.58-41.36,52.41-55.82,52.41-12.65,0-15.66-9.45-15.66-16.67,0-15.06,12.05-30.92,12.05-35.94,0-1-.61-1.6-1.81-1.6-5,0-18.88,19.88-24.09,33.12-4.23,11-7.84,21.09-18.48,21.09-5.22,0-8.83-4.42-8.83-10.84,0-8,4.41-12.65,7.23-22.49,11.84-43.77,30.72-111.23,55-111.23,9.05,0,12.66,5.41,12.66,14.45,0,28.11-32.33,66.45-42.57,80.32L275,285.5c10.44-15.45,27.1-37.13,38.94-37.13,6.43,0,9.84,4.21,9.84,10.84,0,16.26-9,30.71-12.65,39.75a23.81,23.81,0,0,0-2,8.64c0,3.81,1.6,5.81,3.81,5.81,7.23,0,16.47-10.23,39.56-43.36a4.39,4.39,0,0,1,3.41-2ZM284,255.59c13.45-19.27,23.09-37.35,23.09-43.16,0-1.21-.4-2-1.4-2-5.43,0-21.69,45.18-21.69,45.18Z"></path> <path class="cls-1" d="M400.28,268.05a2.78,2.78,0,0,1,3,2.8,5.88,5.88,0,0,1-1,2.81c-23.5,36.75-37.75,52.41-53.81,52.41C335.83,326.07,334,315.23,334,308c0-20.67,11.65-59.62,26.1-59.62,6.63,0,10,4.21,10,10.84,0,13.85-11.24,27.31-11.24,27.31a91.51,91.51,0,0,0-2,15.25c0,5.63,1.4,9,4.22,9,7.43,0,23.08-22.29,35.74-40.76a4.16,4.16,0,0,1,3.41-2Zm-41-44.59c0-8.63,8.63-16.25,18.27-16.25,6.83,0,11.25,4.81,11.25,10.63,0,8.64-8.44,15.66-17.68,16.47-6.82,0-11.84-4.82-11.84-10.85Z"></path> <path class="cls-1" d="M452.88,268.25a2.63,2.63,0,0,1,2.81,2.8,4.85,4.85,0,0,1-.8,2.61c-34.33,47-41.56,52.41-56,52.41-10.84,0-17.87-7.23-17.87-23.49,0-28.92,30.72-121.07,57.82-121.07,9.05,0,12.65,5.41,12.65,14.45,0,28.91-34.33,68.67-43.36,81.31,0,0-3.62,12.65-3.62,20.89,0,7.22,1.8,11.64,6.22,11.64,4.63,0,9.85-1.81,38.76-39.75a4.46,4.46,0,0,1,3.41-1.8Zm-37.54-12.66c13.45-19.27,23.08-37.35,23.08-43.16,0-1.21-.4-2-1.4-2-5.42,0-21.68,45.18-21.68,45.18Z"></path> <path class="cls-1" d="M466.73,307.4c1.21,0,1.81,1.61,1.81,3.41,0,4.82-6.22,15.26-20.88,15.26C435,326.07,431,315.23,431,308c0-20.67,11.65-59.62,26.1-59.62,6.63,0,10,4.21,10,10.84,0,13.85-11.24,27.31-11.24,27.31a90.48,90.48,0,0,0-2,15.25c0,5.63,1.81,10.64,5.23,10.64,5.22,0,6-5,7.62-5Zm-10.44-83.94c0-8.63,8.63-16.25,18.27-16.25,6.83,0,11.25,4.81,11.25,10.63,0,8.64-8.45,15.66-17.67,16.47-6.83,0-11.85-4.82-11.85-10.85Z"></path> <path class="cls-1" d="M266,268.25a3.52,3.52,0,0,0-3,1.6C241.46,298.76,216.57,320,191.87,320c-22.49,0-32.92-19.28-32.92-39,0-16.25,5.89-34.64,15.69-50.36l0,0,.3-.47a.46.46,0,0,0,.09-.15h0a133.06,133.06,0,0,1,8.65-11.64h0c.82-1,1.68-2,2.54-3h0c12.48-14,28.32-23.51,45-23.51,9.63,0,13.65,4.62,13.65,9.84a13.5,13.5,0,0,1-2.5,7.89h0l-.13.18a.29.29,0,0,0,0,.06c-1,1.46-5.31,8.67,3.7,12.06,9.37,3.53,18.49-3.39,20.43-5.08,5.67-5.38,7.83-11.09,7.83-15.32,0-10.84-7.24-20.07-33.74-20.07-23.69,0-47.74,11.45-67.72,28.22-5.3,4.66-15.6,15.35-15.6,15.35-17.47,19.68-28.71,43-28.71,63.63,0,33.34,19.28,50.21,49.39,50.21,47.18,0,78.5-47.79,90.35-65.06a4.84,4.84,0,0,0,.8-2.6,2.84,2.84,0,0,0-3-3Z"></path> <path class="cls-2" d="M405.31,339.14q0,5.89-5.73,12.47a27.13,27.13,0,0,1-9.26,7.33,11.32,11.32,0,0,1-4.64,1.34,5.12,5.12,0,0,1-3-.84,4.45,4.45,0,0,1-2-4,15.68,15.68,0,0,1,1.43-6q-18.62,26.63-18.62,31.84a1.83,1.83,0,0,0,.21.89c.14.25.1.4-.12.46l-.26-.08a7.21,7.21,0,0,1-2.69-5.56q0-7.33,15-29.91c-2.69,2.7-4,3.65-4,2.87a2.27,2.27,0,0,1,.93-1.52,67.84,67.84,0,0,0,8.93-9.69q4.8-6.15,6.19-7.54a4.66,4.66,0,0,1,3.41-1.39,5.74,5.74,0,0,1,4,2.11q-1.68,2-6.31,8.34a24.27,24.27,0,0,1,8.17-5.31,10.31,10.31,0,0,1,3.62-.76,5.73,5.73,0,0,1,3.2,1.06C404.78,336,405.31,337.29,405.31,339.14Zm-23.42,15.67c0,2.52,1,3.79,2.95,3.79a13.18,13.18,0,0,0,5.1-1.69,21.34,21.34,0,0,0,6.65-5.51,29.73,29.73,0,0,0,4.59-6.91,13.24,13.24,0,0,0,1.35-5q0-3.47-2.69-3.46a14.71,14.71,0,0,0-5.48,1.77,21,21,0,0,0-6.91,5.56Q381.9,349.76,381.89,354.81Z"></path> <path class="cls-2" d="M363.52,383l-.41-.15a7.49,7.49,0,0,1-2.78-5.75c0-4.71,4.64-14.18,13.8-28.17-2,1.84-2.37,1.7-2.58,1.61a.47.47,0,0,1-.27-.48,2.44,2.44,0,0,1,1-1.7,67.89,67.89,0,0,0,8.9-9.66c3.24-4.15,5.27-6.63,6.21-7.56a4.91,4.91,0,0,1,3.59-1.47,6,6,0,0,1,4.22,2.18l.16.17-.14.17c-1,1.14-2.58,3.27-5,6.48a23,23,0,0,1,6.52-3.84,10.6,10.6,0,0,1,3.71-.78,6.06,6.06,0,0,1,3.34,1.1c1.13.75,1.71,2.11,1.71,4,0,4-1.95,8.22-5.79,12.63a27.4,27.4,0,0,1-9.35,7.39,11.46,11.46,0,0,1-4.74,1.37,5.38,5.38,0,0,1-3.18-.89,4.71,4.71,0,0,1-2.12-4.16,13.94,13.94,0,0,1,.74-4.2c-11.56,16.65-17.43,26.76-17.43,30.06a1.57,1.57,0,0,0,.18.77.6.6,0,0,1,.08.55.49.49,0,0,1-.36.27Zm-.12-.56.07,0,0-.06a2,2,0,0,1-.25-1c0-3.56,6.11-14,18.67-32l1.37-2-.94,2.2a15.32,15.32,0,0,0-1.41,5.88,4.16,4.16,0,0,0,1.91,3.75,4.82,4.82,0,0,0,2.89.8,11,11,0,0,0,4.53-1.32,27,27,0,0,0,9.18-7.27c3.76-4.31,5.67-8.45,5.67-12.3,0-1.76-.5-3-1.49-3.62a5.51,5.51,0,0,0-3.06-1,10.1,10.1,0,0,0-3.54.75,24.14,24.14,0,0,0-8.08,5.25l-.38-.33c3-4.09,5-6.77,6.19-8.18a5.39,5.39,0,0,0-3.71-1.87,4.37,4.37,0,0,0-3.24,1.32c-.91.91-3,3.44-6.17,7.52a68.19,68.19,0,0,1-9,9.72,2,2,0,0,0-.84,1.33h0c.21,0,1-.41,3.62-3.06l.38.32c-9.92,14.94-14.95,25-14.95,29.77A7,7,0,0,0,363.4,382.39Zm21.44-23.54c-2.12,0-3.2-1.36-3.2-4,0-3.42,1.89-7.33,5.62-11.62a21.25,21.25,0,0,1,7-5.62c2.53-1.21,4.35-1.8,5.59-1.8s2.94.64,2.94,3.71a13.51,13.51,0,0,1-1.37,5.11,29.72,29.72,0,0,1-4.63,7,21.61,21.61,0,0,1-6.73,5.58A13.31,13.31,0,0,1,384.84,358.85Zm15-22.58a14.54,14.54,0,0,0-5.37,1.75,20.64,20.64,0,0,0-6.83,5.49c-3.65,4.21-5.5,8-5.5,11.3,0,2.38.88,3.54,2.7,3.54a13.11,13.11,0,0,0,5-1.66,21.15,21.15,0,0,0,6.57-5.46,29,29,0,0,0,4.55-6.84,12.93,12.93,0,0,0,1.33-4.91C402.28,337.32,401.48,336.27,399.84,336.27Z"></path> <path class="cls-2" d="M420.64,337.37a29.08,29.08,0,0,0-5.77,9q-2.31,5.43-2.31,7.62c0,1.47.57,2.2,1.72,2.2s3.06-.85,5.73-2.53a70.43,70.43,0,0,0,9.14-7.16c.73-.68,1.1-.59,1.1.25a.5.5,0,0,1-.17.34q-4.05,3.54-6.83,5.81a41.13,41.13,0,0,1-6.61,4.34,14.14,14.14,0,0,1-6.28,2.06,6.47,6.47,0,0,1-4.5-1.35,3.92,3.92,0,0,1-1.48-2.94,9.09,9.09,0,0,1,1.1-4.81,45.67,45.67,0,0,1,3.71-4.88c-.62.5-1.59,1.35-2.91,2.53s-2.23,2-2.74,2.35-.76.29-.76-.33c0-.4.45-1,1.35-1.69s2.85-2.58,5.85-5.56,5.06-4.74,6.16-5.3a6.32,6.32,0,0,1,2.69-.85,3.16,3.16,0,0,1,1.56.3C420.73,336.93,420.81,337.15,420.64,337.37Zm1.1-4.47a2.27,2.27,0,0,1-.76-2.18,6,6,0,0,1,1.51-3,4.53,4.53,0,0,1,3.63-1.6,2.3,2.3,0,0,1,1.43.63,2.27,2.27,0,0,1,.59,2.11,4.94,4.94,0,0,1-1.35,2.78,5.36,5.36,0,0,1-2.65,1.68A2.54,2.54,0,0,1,421.74,332.9Z"></path> <path class="cls-2" d="M410.36,359.52a6.76,6.76,0,0,1-4.67-1.41,4.22,4.22,0,0,1-1.56-3.13,9.26,9.26,0,0,1,1.14-4.94,31.85,31.85,0,0,1,2-2.73l-.78.69c-1.34,1.21-2.24,2-2.75,2.37-.12.1-.51.4-.84.24s-.32-.62-.32-.77c0-.48.46-1.08,1.44-1.88s2.86-2.59,5.84-5.55,5.08-4.77,6.21-5.35a6.61,6.61,0,0,1,2.81-.87,3.34,3.34,0,0,1,1.68.33.88.88,0,0,1,.46.53.6.6,0,0,1-.13.47l0,0a28.92,28.92,0,0,0-5.72,8.9c-1.52,3.57-2.3,6.1-2.3,7.52,0,1.74.85,2,1.48,2,1.1,0,3-.84,5.6-2.49a70,70,0,0,0,9.1-7.14c.3-.28.76-.64,1.13-.47s.39.73.39.91a.76.76,0,0,1-.24.51c-2.78,2.43-5,4.34-6.85,5.83a41.63,41.63,0,0,1-6.65,4.37A14.44,14.44,0,0,1,410.36,359.52ZM409,345.09l.35.36a46.49,46.49,0,0,0-3.69,4.86,8.87,8.87,0,0,0-1.06,4.67,3.71,3.71,0,0,0,1.4,2.76,6.29,6.29,0,0,0,4.33,1.28,13.94,13.94,0,0,0,6.16-2,42.6,42.6,0,0,0,6.58-4.31c1.82-1.5,4-3.4,6.81-5.81a.27.27,0,0,0,.09-.15c0-.38-.09-.45-.09-.45h0s-.17,0-.59.38a69.49,69.49,0,0,1-9.18,7.19c-2.73,1.73-4.65,2.57-5.86,2.57-.9,0-2-.43-2-2.45,0-1.51.77-4,2.34-7.72a29.4,29.4,0,0,1,5.81-9s0,0,0-.07-.05-.1-.21-.19a3,3,0,0,0-1.43-.26,6.19,6.19,0,0,0-2.58.82c-1.07.54-3.12,2.32-6.09,5.26s-5,4.84-5.87,5.58c-1.1.89-1.26,1.31-1.26,1.49a.61.61,0,0,0,.05.32,1.08,1.08,0,0,0,.31-.18c.49-.39,1.38-1.15,2.72-2.35S408.41,345.6,409,345.09Zm14.19-11.43a2.53,2.53,0,0,1-1.64-.56h0a2.52,2.52,0,0,1-.85-2.41,6.28,6.28,0,0,1,1.57-3.17,4.77,4.77,0,0,1,3.82-1.69,2.54,2.54,0,0,1,1.59.69,2.5,2.5,0,0,1,.68,2.33,5.25,5.25,0,0,1-1.41,2.92,5.76,5.76,0,0,1-2.78,1.76A4,4,0,0,1,423.22,333.66Zm2.9-7.33a4.26,4.26,0,0,0-3.43,1.51,5.64,5.64,0,0,0-1.46,2.9,2,2,0,0,0,.66,2h0a2.3,2.3,0,0,0,2.18.33,5.17,5.17,0,0,0,2.54-1.61,4.74,4.74,0,0,0,1.28-2.64,2,2,0,0,0-1.77-2.46Z"></path> <path class="cls-2" d="M455.67,359.49c0-1.48-2.56-2.21-7.66-2.21a115.64,115.64,0,0,0-15.75,1.43l-2.53.43a6.86,6.86,0,0,1-.81.12,1.66,1.66,0,0,1-1.37-.9,1.43,1.43,0,0,1-.27-.85,1.26,1.26,0,0,1,.62-.93,16.86,16.86,0,0,1,2.53-1.44l.12-.08a112.37,112.37,0,0,1,12.95-11q7.33-5.42,12.71-7.12-1.48-1.32-6.3-1.32-7.5,0-12.13,2.1c-1.74.78-2.61,1.62-2.61,2.53a2.25,2.25,0,0,0,.67,1.44q.15.15-.06.15a.65.65,0,0,1-.41-.15,2.34,2.34,0,0,1-.82-1.73,4.05,4.05,0,0,1,.7-2.08q2.69-4.2,11.36-4.79c.75,0,1.73,0,2.95,0a21.51,21.51,0,0,1,3.77.35c2.9.57,4.36,1.69,4.36,3.35V337a.45.45,0,0,1,.15.31c0,.1-.08.21-.23.31a3.51,3.51,0,0,1-.22.86,1.17,1.17,0,0,1-.27.52c-.06,0-.1,0-.11,0a.88.88,0,0,1,.09-.39,1.35,1.35,0,0,0,.08-.68l-.12.08a82.18,82.18,0,0,0-13.22,7.62,133.77,133.77,0,0,0-11.5,9,26.78,26.78,0,0,1,7.34-.74q10.94,0,14.86,2.69a3.07,3.07,0,0,1,1.59,2.53,3,3,0,0,1-.21,1.1c-.15.35-.28.53-.41.53s-.2-.14-.06-.41A1.76,1.76,0,0,0,455.67,359.49Z"></path> <path class="cls-2" d="M455.51,361.45a.89.89,0,0,1-.78-.42,1.08,1.08,0,0,1,.06-1.09,1,1,0,0,0,.13-.45c0-.15-.2-1.46-6.91-1.46a114.16,114.16,0,0,0-15.64,1.43l-2.51.42a5.77,5.77,0,0,1-.94.13,2.36,2.36,0,0,1-2-1.23,2.22,2.22,0,0,1-.4-1.27,1.92,1.92,0,0,1,.93-1.53,17.66,17.66,0,0,1,2.61-1.5h0a114.49,114.49,0,0,1,13-11,52.8,52.8,0,0,1,11.27-6.62,16.16,16.16,0,0,0-4.41-.46c-4.87,0-8.85.68-11.82,2-1.4.63-2.17,1.28-2.17,1.85a1.54,1.54,0,0,0,.47.94.8.8,0,0,1,.2.9.83.83,0,0,1-.81.5,1.4,1.4,0,0,1-.88-.32,3.12,3.12,0,0,1-1.1-2.31,4.76,4.76,0,0,1,.82-2.48c1.92-3,5.93-4.73,11.93-5.14.79,0,1.78,0,3,0a22.34,22.34,0,0,1,3.91.37c3.3.65,5,2,5,4.08v0a1.12,1.12,0,0,1,.15.56,1,1,0,0,1-.28.69,5.52,5.52,0,0,1-.21.74,1.61,1.61,0,0,1-.6.91l-.34.19-.43-.14a.79.79,0,0,1-.45-.54,82.39,82.39,0,0,0-12,7.05c-3.41,2.39-6.53,4.77-9.31,7.1a42.51,42.51,0,0,1,4.72-.22c7.51,0,12.51.92,15.28,2.81a3.78,3.78,0,0,1,1.92,3.15,3.65,3.65,0,0,1-.27,1.38C456.5,360.73,456.21,361.45,455.51,361.45ZM430.39,356a17,17,0,0,0-2.07,1.21c-.26.19-.29.32-.29.32a.78.78,0,0,0,.14.42c.37.57.65.57.75.57s.32,0,.68-.11l2.54-.43A115.79,115.79,0,0,1,448,356.53a22.54,22.54,0,0,1,6.08.61c-2.49-1.68-7.33-2.53-14.41-2.53a26.13,26.13,0,0,0-7.12.7Zm24.18-17.65a50.89,50.89,0,0,0-9.94,5.82A85.59,85.59,0,0,1,454.57,338.34Zm-19.29,3.85s0,0,0,0Zm14.28-8.39c-1.21,0-2.18,0-2.93,0-5,.34-8.41,1.59-10.23,3.74.32-.18.68-.37,1.07-.55,3.17-1.43,7.35-2.16,12.44-2.16,3.44,0,5.66.5,6.8,1.51l.22.2c-.11-1.15-1.37-2-3.74-2.44A20.88,20.88,0,0,0,449.56,333.8Z"></path> <path class="cls-2" d="M487,359.49c0-1.48-2.55-2.21-7.65-2.21a115.77,115.77,0,0,0-15.75,1.43l-2.53.43a6.86,6.86,0,0,1-.81.12,1.66,1.66,0,0,1-1.37-.9,1.43,1.43,0,0,1-.27-.85,1.26,1.26,0,0,1,.62-.93,16.86,16.86,0,0,1,2.53-1.44l.12-.08a112.37,112.37,0,0,1,12.95-11q7.33-5.42,12.71-7.12-1.49-1.32-6.3-1.32-7.5,0-12.13,2.1c-1.74.78-2.61,1.62-2.61,2.53a2.2,2.2,0,0,0,.67,1.44q.15.15-.06.15a.65.65,0,0,1-.41-.15,2.38,2.38,0,0,1-.82-1.73,4.05,4.05,0,0,1,.7-2.08q2.69-4.2,11.35-4.79c.76,0,1.74,0,3,0a21.51,21.51,0,0,1,3.77.35c2.9.57,4.36,1.69,4.36,3.35V337a.45.45,0,0,1,.15.31c0,.1-.08.21-.23.31a3.51,3.51,0,0,1-.22.86,1.17,1.17,0,0,1-.27.52c-.06,0-.1,0-.11,0a.88.88,0,0,1,.09-.39,1.35,1.35,0,0,0,.08-.68l-.12.08a81.67,81.67,0,0,0-13.21,7.62,132.47,132.47,0,0,0-11.51,9,26.81,26.81,0,0,1,7.35-.74q10.92,0,14.85,2.69a3.07,3.07,0,0,1,1.59,2.53,3,3,0,0,1-.21,1.1c-.15.35-.28.53-.41.53s-.2-.14-.06-.41A1.74,1.74,0,0,0,487,359.49Z"></path> <path class="cls-2" d="M486.82,361.45A.88.88,0,0,1,486,361a1.1,1.1,0,0,1,0-1.09.91.91,0,0,0,.13-.45c0-.15-.19-1.46-6.9-1.46a114.16,114.16,0,0,0-15.64,1.43l-2.51.42a5.77,5.77,0,0,1-.94.13,2.36,2.36,0,0,1-2-1.23,2.18,2.18,0,0,1-.4-1.27,1.94,1.94,0,0,1,.92-1.53,17.94,17.94,0,0,1,2.62-1.5h0a113.62,113.62,0,0,1,13-11,52.8,52.8,0,0,1,11.27-6.62,16.16,16.16,0,0,0-4.41-.46c-4.87,0-8.85.68-11.82,2-1.4.63-2.17,1.28-2.17,1.85a1.49,1.49,0,0,0,.47.93.81.81,0,0,1,.2.91.83.83,0,0,1-.81.5,1.38,1.38,0,0,1-.88-.32,3.12,3.12,0,0,1-1.1-2.31,4.76,4.76,0,0,1,.82-2.48c1.92-3,5.93-4.73,11.93-5.14.79,0,1.78,0,3,0a22.26,22.26,0,0,1,3.91.37c3.3.65,5,2,5,4.08v0a1.12,1.12,0,0,1,.15.56,1,1,0,0,1-.28.7,5.84,5.84,0,0,1-.21.73,1.63,1.63,0,0,1-.6.91l-.33.19-.42-.13a.84.84,0,0,1-.47-.55,82.15,82.15,0,0,0-12,7.05c-3.42,2.39-6.54,4.77-9.32,7.1a42.7,42.7,0,0,1,4.73-.22c7.5,0,12.5.92,15.27,2.81a3.78,3.78,0,0,1,1.92,3.15,3.66,3.66,0,0,1-.27,1.39C487.82,360.7,487.52,361.45,486.82,361.45ZM461.7,356a20.7,20.7,0,0,0-2.07,1.22.79.79,0,0,0-.29.32.7.7,0,0,0,.14.41c.37.58.65.58.75.58s.32,0,.68-.11l2.54-.43a115.79,115.79,0,0,1,15.87-1.44,22.54,22.54,0,0,1,6.08.61c-2.49-1.68-7.33-2.53-14.4-2.53a26.17,26.17,0,0,0-7.13.7Zm24.19-17.64a50.9,50.9,0,0,0-10,5.83A83,83,0,0,1,485.89,338.34Zm-19.3,3.85,0,0Zm14.28-8.39c-1.21,0-2.18,0-2.93,0-5,.34-8.4,1.59-10.23,3.74.32-.18.68-.37,1.07-.55,3.17-1.43,7.36-2.16,12.44-2.16,3.44,0,5.66.5,6.8,1.51l.22.2c-.11-1.15-1.37-2-3.74-2.44A20.88,20.88,0,0,0,480.87,333.8Z"></path> <path class="cls-2" d="M521.44,345.63c-.62.73-1.25,1.51-1.9,2.35s-1.46,2-2.44,3.46a7.12,7.12,0,0,0-1.48,3.7c0,1,.44,1.52,1.31,1.52a10.75,10.75,0,0,0,4.26-1.6,71.93,71.93,0,0,0,13-10.11c.56-.56.93-.64,1.1-.25V345a.93.93,0,0,1-.34.6q-14.49,13.64-21.06,13.64a4.39,4.39,0,0,1-3.24-1.3,4.22,4.22,0,0,1-1.31-3.08,15.94,15.94,0,0,1,1.52-5.39,30.64,30.64,0,0,1-8.13,7.29c-2.89,1.71-5.16,2.57-6.78,2.57a6.22,6.22,0,0,1-4.17-1.48,4.62,4.62,0,0,1-1.73-3.66q0-6.24,5.56-12.22a23.22,23.22,0,0,1,10.45-6.32,17.29,17.29,0,0,1,5.43-.92,10,10,0,0,1,5.14,1.47,6.72,6.72,0,0,1,3.16,3.5,3.88,3.88,0,0,1,3.62,1.85,1.6,1.6,0,0,1,.17.84,2.21,2.21,0,0,1-.63,1.35Zm-6.15-8.34a10.61,10.61,0,0,0-4.21,1.09,22.82,22.82,0,0,0-8.17,6.4c-4.11,4.83-6.15,8.37-6.15,10.62,0,1.18.47,1.77,1.43,1.77a10,10,0,0,0,3.92-1.52,36.74,36.74,0,0,0,7.2-6c.17-.17.81-.79,1.94-1.85s2.07-2,2.86-2.79q4-4.12,4-5.93C518.07,337.89,517.14,337.29,515.29,337.29Z"></path> <path class="cls-2" d="M496,359.61a6.47,6.47,0,0,1-4.33-1.54,4.85,4.85,0,0,1-1.82-3.85c0-4.2,1.89-8.37,5.63-12.39A23.48,23.48,0,0,1,506,335.45a17.24,17.24,0,0,1,5.51-.94,10.28,10.28,0,0,1,5.27,1.51,7.08,7.08,0,0,1,3.21,3.46,4.07,4.07,0,0,1,3.65,2,1.77,1.77,0,0,1,.21,1,2.47,2.47,0,0,1-.69,1.51l-1.56,1.86h0c-.62.73-1.26,1.52-1.89,2.35s-1.46,2-2.43,3.44a6.89,6.89,0,0,0-1.43,3.56c0,1.13.56,1.27,1,1.27a10.66,10.66,0,0,0,4.14-1.57,71.7,71.7,0,0,0,13-10.07c.43-.43.77-.61,1.06-.55a.58.58,0,0,1,.44.38l0,.1V345a1.14,1.14,0,0,1-.41.77c-9.81,9.24-16.75,13.72-21.24,13.72a4.64,4.64,0,0,1-3.42-1.38,4.46,4.46,0,0,1-1.38-3.25,12.67,12.67,0,0,1,1-4,29.64,29.64,0,0,1-7.19,6.15C500,358.73,497.67,359.61,496,359.61ZM511.54,335a17.24,17.24,0,0,0-5.36.91,23.07,23.07,0,0,0-10.34,6.25c-3.64,3.93-5.49,8-5.49,12.05a4.35,4.35,0,0,0,1.64,3.47,6,6,0,0,0,4,1.42c1.57,0,3.81-.86,6.65-2.54a30.3,30.3,0,0,0,8.06-7.23l1.11-1.38-.68,1.64a15.82,15.82,0,0,0-1.5,5.29,4,4,0,0,0,1.23,2.9,4.18,4.18,0,0,0,3.07,1.23c4.29,0,11.32-4.57,20.89-13.58.23-.23.26-.36.26-.41v-.27l-.05-.05s-.17,0-.62.42a72.52,72.52,0,0,1-13.11,10.15,10.85,10.85,0,0,1-4.38,1.63c-.71,0-1.55-.31-1.55-1.77a7.27,7.27,0,0,1,1.51-3.84c1-1.46,1.81-2.63,2.45-3.47s1.28-1.63,1.91-2.37h0l1.55-1.85a2,2,0,0,0,.58-1.19,1.27,1.27,0,0,0-.13-.7,3.6,3.6,0,0,0-3.41-1.74h-.18l-.06-.17a6.46,6.46,0,0,0-3.05-3.36A9.7,9.7,0,0,0,511.54,335Zm-13.35,22.41c-.77,0-1.68-.35-1.68-2,0-2.33,2-5.86,6.21-10.78a23.12,23.12,0,0,1,8.26-6.47,10.92,10.92,0,0,1,4.31-1.12c2.5,0,3,1.13,3,2.07,0,1.28-1.32,3.28-4,6.11-.81.81-1.78,1.75-2.87,2.79l-1.94,1.85a37.33,37.33,0,0,1-7.25,6A10.09,10.09,0,0,1,498.19,357.42Zm17.1-19.89a10.5,10.5,0,0,0-4.11,1.08A22.67,22.67,0,0,0,503.1,345c-4.05,4.76-6.09,8.27-6.09,10.45,0,1.36.67,1.52,1.18,1.52a9.72,9.72,0,0,0,3.79-1.49,36.32,36.32,0,0,0,7.15-5.94l1.94-1.86c1.09-1,2.06-2,2.86-2.77,2.58-2.69,3.89-4.63,3.89-5.76C517.82,338.71,517.82,337.53,515.29,337.53Z"></path> <path class="cls-2" d="M532.8,392.31c-7.61-4.18-20.91-2.66-48.65,7.22s-49.77,5.71-63.83,3.42c-6.63-1.07-22.19-6.19-39.54-12.13-4.41.58-.37,4,1.93,5.44,3.28,2,7.19,2.64,10.59,4.46a70.22,70.22,0,0,0,8.17,3.89c2.87,1.07,5.92,1.28,8.6,2.33,1,.37,3,1.75,1.28,2.81-.44.28-3.79-.5-4.55-.57-5.7-.56-11.47-3-16.28-6.05-4.2-2.63-9.18-3.72-13.53-6.07a37.3,37.3,0,0,1-5.72-3.45c-1.92-1.53-3.32-3.62-5.29-5.11a38.44,38.44,0,0,0-11.59-5.88,31.33,31.33,0,0,1-6.51-3.08c-8.34-2.83-16-5.36-22.17-7.17-26.23-7.8-55.86-14.26-95.38-10.84-35,3-49.46,17.72-52.28,21-3.66,2.6-5.29,8.89-4.38,12.82.72,3.06,2.76,5.44,4.09,8.12,1.5,3-1.74,5.06-2.58,7.85s.34,6.51.58,9.3a13.11,13.11,0,0,0,3.22,7.66,19.64,19.64,0,0,0,4.72,4.29c6,6.94,20.27,8.2,30.34,6.05l.48-1s12.1-5.35,16.64-9.79,6.2-6.13,10.74-7.31,2.39,1.92,0,2.87-7.48,5.22-4.34,6.56a1.7,1.7,0,0,1,.89,1,137.65,137.65,0,0,1,26.84-4.51c25.84-1.9,40.27-2.28,67.63,4.95s64.22,11,92,10.63,50.15-10.26,57.76-14.82,30.78-17.86,37.24-20.52,10.26-2.27,9.5.38-.39,6.84,8,4.94S540.39,396.49,532.8,392.31ZM292.67,372.54c-.86,1.2-2.57-.09-3.63-.36-3.28-.87-6.9-.78-10.32-1-4.54-.22-9-.37-13.63-.37a56.33,56.33,0,0,1-9.88-.58c-3.21-.58-6.09-.22-9.35-.18-4.53,0-8.93-.4-13.24,1.09-2.52.86-4.88,2.2-7.38,3.1-1.89.67-3.39.54-5.35.74-7.16.67-13.12,6.81-19,10-2.88,1.58-8.69,15.23-12.17,7.09-1.07-2.51-2.57-5.3-1.5-8.18,1.26-3.36,5.38-3.89,8.17-5.56,4.45-2.64,8.1-4.83,13.23-6.16,6.25-1.63,12.35-3.36,18.68-4.62,6.9-1.36,14.05-2.69,21.09-1.69,5.43.76,11.06,0,16.54.51,4.48.44,9.14.62,13.62,1.23,3.7.49,7.6.67,11.23,1.49C290.92,369.41,293.83,370.9,292.67,372.54ZM306,376.39a28.47,28.47,0,0,1-7.61-1.16c-.93-.29-2.8-.71-3-1.72-.46-2,1.53-1.68,2.66-1.47,2.38.43,6.65.53,8.7,1.66S308.14,376.48,306,376.39Zm171.94,33.54c-2.4,1.8-6.38,1.46-9.17,2.56-3.93,1.55-8.14,3.72-12.29,4.67s-9.6.39-13.87.42c-5.22,0-10.16-1.56-15.13-3-1.23-.36-4.25-.68-4.79-1.94-1.66-3.87,11.71-.08,13,0,4.12.42,8.18-.21,12.21-.39s8.21.61,12.15-.19a85.14,85.14,0,0,0,12.36-3.41c1.41-.52,3.76-2.17,5.32-1.71C479.44,407.44,479.2,409,477.89,409.93Zm5.33-2.23c-1.52-.31-2.18-1.59-.92-3,.92-1,3.42-2.08,4.43-.64C488,405.91,484.9,408.05,483.22,407.7Zm51.35.24c-.77.89-3.51,2.72-3.83.37-.2-1.49,2.42-3.25,3.14-4.36a4.42,4.42,0,0,0-.28-5.4,8.75,8.75,0,0,0-6.42-3.56c-2.22-.33-4.2-1.8-6.4-1.82s-4.4,1.68-6.68,1.4c-.32-1.74,4.83-2.31,6.08-2.43,2.74-.27,5.17,1.05,7.87,1.28s4.48,1.51,6.16,3.88c1.18,1.65,2.51,3.67,2.53,5.84A7.93,7.93,0,0,1,534.57,407.94Z"></path> <path class="cls-2" d="M89.18,387.2A2.55,2.55,0,0,0,91,383.12a5.35,5.35,0,0,0-3.57-1.91s-2.14,0-2.37.86c-.52,1.85,1,3-1.68,3.7-3.49.85.68,6.12,2.73,6s1.89-2.66,1.8-3.32S87.7,387.29,89.18,387.2Z"></path> <path class="cls-2" d="M166.66,391.46a7.48,7.48,0,0,0,1.48,7.16c1.15,2.07,2.65,4.19,3.11,6.51.42,2.15-.14,5.05,1,7,1.08,1.78,1.06,0,1.83-.86l-.42.15c.3-2.42,2.89-3.65,2.7-6.41-.17-2.54-3.25-3.93-4-6.45-1.22-4.45.12-11.28-5-13.61-.57-.25-1.05-.59-1.55,0C167.23,386.45,166.78,389.45,166.66,391.46Z"></path> <path class="cls-2" d="M181.51,434.21c-.37-2.26-3.08-3.74-4.56-5.6s-1.95-4.72-2.11-7c-.13-1.84-.11-4.68-1.64-6-1.14-1-2.2-.33-3.06,1.06a3.68,3.68,0,0,0-.4-1.28c-1.39-2.73-5.64-1.5-8.13-1.9-2.87-.46-5.59-1.47-8.55-1.9-.86-.12-2-.12-2.25-1a40.53,40.53,0,0,1,8.33.55c2.68.4,5.06,1.46,7.36-.63,2-1.8,2.13-4.34-.27-5.89-1.37-.88-2.51-.57-4-.71a23.46,23.46,0,0,1-3.92-1c2.33-1.8,6,.63,7.39-2.57s.33-6.33-3.24-6.15c-.61-1.7-.31-2.54-1.89-2.66a22.11,22.11,0,0,0-3.84,2.4c-12.83,9.69-15.68,9.69-25.65,9.12s-22.52-4.27-27.94-8C100,393,97.15,389,94.25,386.25c-1.7-1.7-3.19.07-3.41,1.28s.71,2.14.08,2.35-1.78-.21-2.42,2.14c-.4,1.44.83,2.68,1.83,3.41,5.94,3.71,16.86,10.57,29,12.48,14.54,2.27,17.1,3.23,27.08,9.17s8.55,7.36,15.1,8.22c2.8.36,5,.5,6.47-.53a4.78,4.78,0,0,0,.29,2c1.45,2.78,4.2,4.76,6.67,6.52,2,1.41,4.75,2.89,5,5.58C181.66,439.37,181.69,435.33,181.51,434.21Zm-13.32-11.56c-1.33-.49-3.41-.27-4.63-.73s-5.85-2.46-6.29-3.72c2.46-.53,5.47,1.95,8.14,2.05A5.69,5.69,0,0,0,169,419.2,19.85,19.85,0,0,0,168.19,422.65Z"></path> <path class="cls-2" d="M190.69,426.89c-1.79-1.21-5.28-10.53-1.51-9.91.42.08.8,5.1.92,5.64.44,2.11,1.39,3.2,2.6,4.8A3,3,0,0,1,190.69,426.89Z"></path> <path class="cls-2" d="M200.26,431.31l-.11.07c-1,.51-2.59-2-3.15-2.71a18.69,18.69,0,0,1-4.1-8,13,13,0,0,1,.11-6.18c.71-1.9,1.94-.55,2.26.72.4,1.6-.17,3.28-.09,4.89a12.42,12.42,0,0,0,2.35,6.77C198,427.5,201.57,430.36,200.26,431.31Z"></path> <path class="cls-2" d="M200.92,423.37a21.3,21.3,0,0,1-2.42-7.16,14.54,14.54,0,0,1,.07-4.56,4.6,4.6,0,0,1,.84-2.32c.74-.73,1.68-.93,1.44.48-.39,2.28-1.29,4.21-.83,6.73a20.15,20.15,0,0,0,2,6.24,26.47,26.47,0,0,0,3.92,4.76c1,.94,4.41,2.46,4,4.08C205.94,432.1,202.52,426.37,200.92,423.37Z"></path> <path class="cls-2" d="M211.44,426.85a.32.32,0,0,1-.18.06c-1.62.34-3.73-5.05-4.14-6-.32-.72-4.1-8.51-2-8.84,1.26-.2,1.55,2.68,1.75,3.4a36,36,0,0,0,2.38,6.89C209.62,423,212.88,426.13,211.44,426.85Z"></path> <path class="cls-2" d="M214.72,420.53c-.68,1.23-2.72-1.57-3-2.14s-1.57-4.12-.12-4.42c1.25-.26,1.24,2.22,1.47,2.89C213.31,417.72,215.18,419.66,214.72,420.53Z"></path> <path class="cls-2" d="M311.83,407.31c-2.36-1.47,4.41-5.68,5.21-6.63,1.19-1.39,3.71-6.1,6.32-4.75,2.26,1.17-3.58,6.07-4.22,6.6C317.91,403.57,313.86,408.58,311.83,407.31Z"></path> <path class="cls-2" d="M317.52,416.34c-1.16-1,.93-2,1.78-2.7a74.94,74.94,0,0,0,5.63-5.36c2-2.12,3.75-4.43,5.81-6.52a33.66,33.66,0,0,0,5-5.71c.54-.88,1.16-3,2.43-3.13,2.38-.15-.06,3.26-.61,4.15-2.52,4.07-5.55,7.51-8.45,11.31C327.64,410.28,320.39,418.84,317.52,416.34Z"></path> <path class="cls-2" d="M331.6,421.11c-1.7,1.27-6,3.72-8,1.77.77-2,4.73-4,6.33-5.29a33.81,33.81,0,0,0,7.19-8c1.93-2.91,3.76-5.82,5.88-8.59a40.94,40.94,0,0,0,4.71-7.5c.36-.79,2.23-6.87,3.27-3.48.5,1.62-.91,4.62-1.52,6.07-1.45,3.54-4.61,6.27-6.84,9.32s-2.78,6.84-5.26,9.35C335.42,416.74,333.89,419.4,331.6,421.11Z"></path> <path class="cls-2" d="M346.51,421.73c-1.32,1.72-3.29,5.7-6.09,3.77,1-2.43,2.69-4.24,4.39-6.18s3.58-4.05,5.12-6.12,2.3-5.28,3.57-7.66c.81-1.5,2-2.82,2.74-4.35.51-1,.39-2.86,1.2-3.63,1.3-1.24,1.42,1.07,1.36,2-.14,2.11-1.57,4-2.22,6a31.09,31.09,0,0,1-4.47,9.34C350.3,417.24,348.31,419.4,346.51,421.73Z"></path> <path class="cls-2" d="M364.58,413.18c-1.49,2.82-4.08,4.75-5.9,7.27-.76,1-1.23,2.21-2.09,3.22-1.41,1.67-2.8,1.37-2-1,.9-2.66,3.41-5.32,4.94-7.63a30.74,30.74,0,0,0,3.26-5.91c.45-1.16.69-2.67,1.58-3.59,1.32-1.33,2.43-1,2.43,1S365.53,411.38,364.58,413.18Z"></path> <path class="cls-2" d="M399,430.55c-1.53-1.22.92-3.61,1.69-4.52.44-.51,3.32-4.86,3.3-4.86C407.09,421.17,402.39,433.19,399,430.55Z"></path> <path class="cls-2" d="M406.78,434.45c-.68.82-2.46,2.81-3.62,1.42-.85-1,.64-3.28,1.24-4.05,2.36-3.08,4.86-6.63,5.28-10.63l-.18,1.53c.37-.9.42-3.09,1.37-3.57,2.94-1.5.93,6.21.52,7.37A27.23,27.23,0,0,1,406.78,434.45Z"></path> <path class="cls-2" d="M415.46,432.26c-1.13,1.45-5.33,3.57-3.6.19,1-1.89,2.68-3.3,3.52-5.14.68-1.49.2-4,1.79-4.93,1.33-.82,1.76.23,2.09,1.24C420.24,426.55,417.13,430.12,415.46,432.26Z"></path> <path class="cls-2" d="M496.88,410.9a8,8,0,0,1-.22,2.64c-.34.78-1.07.63-1.27-.16a4.16,4.16,0,0,1,.31-3.06c.51-.7,1.24-.59,1.19.36A1.62,1.62,0,0,1,496.88,410.9Z"></path> <path class="cls-2" d="M499.54,412.59c-.06.46-.14,1.63-.79,1.07-.34-.28-.32-1.42-.35-1.85-.07-1.05,0-2.09,0-3.14a4.61,4.61,0,0,1,.36-2.49c.85-1.38,1.2.23,1.19,1.08C499.88,409,499.7,410.86,499.54,412.59Z"></path> <path class="cls-2" d="M502.94,408.69c-.22,1.1,0,2.37-.42,3.38-.18.41-.67,1.08-1.17.47-.24-.27-.06-1.52,0-1.86.2-3.08,0-6.7,1.61-9.47.13-.12,0,0,0,.08l.2-.19a.64.64,0,0,1,1.23.22,9.3,9.3,0,0,1-.46,2.36C503.53,405.37,503.29,407,502.94,408.69Z"></path> <path class="cls-2" d="M506.79,403.69a24.85,24.85,0,0,0-1.1,4.09c-.07.5-.77,4.19-1.5,3-.53-.84.32-3.57.43-4.53a11.52,11.52,0,0,1,1.34-4.18v.07c-.08-.38.78-.31,1,.12A2,2,0,0,1,506.79,403.69Z"></path> <path class="cls-2" d="M509.82,405.68a17.63,17.63,0,0,1-.83,2.39c-.18.27-.69.64-1,.36s-.06-1,0-1.28a4.31,4.31,0,0,1,1.24-2.43C510.29,403.82,510.17,404.94,509.82,405.68Z"></path> </svg> 