<svg xmlns="http://www.w3.org/2000/svg" id="Слой_1" data-name="Слой 1" viewBox="0 0 850.39 850.39" m_init="2270459202203300732"> <defs> <style>.cls-1{fill:#fff;}.cls-2{fill:#14afe6;}</style> </defs> <path class="cls-1" d="M197.62,410.3H109.78c0-5.67-.15-11,.11-16.26,0-1.33,1.22-2.73,2.15-3.9q23.61-30,47.28-60c.93-1.19,1.84-2.39,3.34-4.35-16.94-.35-33.08.05-49.57-.25V303h83c0,5.51.18,10.94-.12,16.35-.09,1.43-1.52,2.89-2.56,4.18q-23.81,29.85-47.71,59.66c-.93,1.17-1.84,2.39-3.33,4.35,18.72.13,36.66,0,55.19.07C197.85,395.21,197.78,402.64,197.62,410.3Z"/> <path class="cls-1" d="M428.48,410.81h-29.2L378.8,378.34c-1.24,3-.61,5.58-.72,8.07-.1,2.66,0,5.32,0,8v16.09c-7.49,0-14.65.17-22.07-.13V302.93h21.39a2.92,2.92,0,0,1,.32.28.83.83,0,0,1,.19.34,7.71,7.71,0,0,1,.14,1.26q.08,32.31.12,64.64a5.13,5.13,0,0,0,.32.94,24.36,24.36,0,0,0,2-2.43c4.88-7.67,9.82-15.32,14.56-23.07a5.37,5.37,0,0,1,5.39-2.92c8.23.15,16.47,0,25.66,0-7.74,11-15.25,21.13-22.79,31.66C411.58,385.87,419.81,398,428.48,410.81Z"/> <path class="cls-2" d="M381.29,502.48c-1.44-14.32-10.91-25.8-24.7-29-14.36-3.38-26.94.45-37.09,11.17a28.08,28.08,0,0,0-5.71,9.62,44.62,44.62,0,0,0-.51,28.87,28.25,28.25,0,0,0,17.8,18.83,56.34,56.34,0,0,0,29.38,2.42,27.56,27.56,0,0,0,14.28-7c-1.24-3.21-2.43-6.3-3.68-9.4-.77-1.93-1.61-3.84-2.55-6-1.56,1-2.59,1.68-3.7,2.27a28.55,28.55,0,0,1-17,3.63A14.55,14.55,0,0,1,335,516.11H380.1A30.86,30.86,0,0,0,381.29,502.48Zm-47.35-.67a11.3,11.3,0,0,1,9.52-10,16.1,16.1,0,0,1,9.43.73c4.12,1.65,5.59,3.84,5.8,9.23C350.44,501.93,342.22,501.85,333.94,501.81Z"/> <path class="cls-2" d="M660,474.72c-13.51-4.82-29.75-.69-39.61,10.06a26.45,26.45,0,0,0-5.93,10,46.86,46.86,0,0,0-.39,28.5c3,9.66,9.44,16.36,19.19,19.58a58.76,58.76,0,0,0,24.47,2.35c6.54-.63,12.46-2.77,17.53-7.46-2-5.11-4-10.12-6.14-15.35-1.49.88-2.55,1.52-3.62,2.12a28.89,28.89,0,0,1-15.67,4c-7.09-.37-12.93-5.26-14-11.91h44.7C686.1,499.62,676.68,480.67,660,474.72Zm-.77,27.39H634.43a9.7,9.7,0,0,1,4.07-7.21,15.2,15.2,0,0,1,16.55-1.18A7.76,7.76,0,0,1,659.21,502.11Z"/> <path class="cls-1" d="M646.75,369.69c-1.38-14.89-11.19-26.34-25.8-29.37s-26.78,1.42-36.65,12.45A25.22,25.22,0,0,0,579,363.13a47.21,47.21,0,0,0-.51,24.49c2.89,11.53,10,19.11,21.49,22.45a60.17,60.17,0,0,0,24.14,1.67,28.33,28.33,0,0,0,16.19-7.25c-1-2.71-2-5.18-3-7.63s-2.12-5.09-3.24-7.77c-1.42.85-2.47,1.55-3.57,2.15a28.62,28.62,0,0,1-16.09,3.85c-6.79-.45-12.55-5.37-13.58-11.83h44.92C647.27,378.62,647.15,374.14,646.75,369.69Zm-46.88-.85c-.63-2.67.81-4.42,2.33-6,4.52-4.78,13.09-5.66,18.57-2,2.7,1.79,3.66,4.41,3.75,8Z"/> <path class="cls-1" d="M266.25,361.06a22.47,22.47,0,0,0-.59-4.13c-2.46-11.06-12.41-16.19-21.43-17.22a50.06,50.06,0,0,0-28.85,5.49c-.94.5-1.8,1.18-2.76,1.81.94,2.89,1.8,5.55,2.68,8.19s1.75,5.2,2.69,8c1.68-.8,2.91-1.43,4.15-2a25,25,0,0,1,14.3-2.29,13.84,13.84,0,0,1,8.16,3.95c2.36,2.38,2.57,4.46.87,7.49-1.27-.45-2.6-.89-3.9-1.36a30.4,30.4,0,0,0-13.64-1.67c-11.43,1.18-19.72,9.25-21.07,20.5a21,21,0,0,0,17.54,23.72c6.77,1.15,13-.47,18.9-3.9,1.18-.67,2.33-1.35,3.87-2.26.19,2.08.33,3.69.49,5.53h19.2a19.23,19.23,0,0,0,.23-2Q266.7,385,266.25,361.06Zm-23.56,31.41a11.54,11.54,0,0,1-2.2.71,15.13,15.13,0,0,1-7.05-.05,10.12,10.12,0,0,1-1.25-.4c-3.78-1.54-4.22-5.81-.95-8.28,3.1-2.36,8.6-2.61,11.82-.53C246.75,386.3,246.65,390.63,242.69,392.47Z"/> <path class="cls-2" d="M449.29,541c-.25-13.85-.72-27.71-.7-41.56s-8.86-22-21.81-23.77c-10.12-1.4-19.76.72-28.92,5.18-1.08.55-2.06,1.28-3.15,1.95l5.22,15.49c4.74-1.4,8.8-3,13-3.75a15.31,15.31,0,0,1,13.64,3.89c2.45,2.26,2.71,4.25,1.28,7.32-3.94-1-7.81-2.23-11.77-2.77-13.14-1.79-25.08,7-27,19.53-1.82,12,5.62,22.41,17.52,24.54,7,1.25,13.29-.8,19.28-4.2,1-.57,2-1.13,3.29-1.85.22,2.06.38,3.55.56,5.27h19.55C449.29,544.35,449.32,542.7,449.29,541Zm-24.65-12.83a23.11,23.11,0,0,1-3.2.86,11.28,11.28,0,0,1-4.52,0,14.36,14.36,0,0,1-2.85-.82c-3.34-1.45-3.78-5.48-1-7.87s9-2.87,12.24-.74a4.8,4.8,0,0,1,2.5,4.52A4.56,4.56,0,0,1,424.64,528.21Z"/> <path class="cls-2" d="M523.85,535.16a22.56,22.56,0,0,1-2.31,2.36c-12.83,9.75-26.86,12.6-42.29,7.25-11.72-4.08-18.71-12.36-21.25-24.4a43.6,43.6,0,0,1,1.49-23.58c4.36-12.6,13.24-20.22,26.33-22.55,12.3-2.17,23.59.63,33.71,8a11.16,11.16,0,0,1,1.31,1.05,4.47,4.47,0,0,1,.55,1c-3.22,5.65-6.52,11.46-10,17.52-1.11-.91-1.91-1.63-2.77-2.28-5.76-4.3-12.08-4.93-18.66-2.45-5.79,2.19-9.21,7.93-8.93,14.34a15.38,15.38,0,0,0,11.12,13.79c6.32,1.8,12.18.49,17.49-3.32,1-.72,1.9-1.61,3.36-2.86Z"/> <path class="cls-1" d="M344.76,399.34c-.93.58-1.93,1.09-2.79,1.75-12.27,9.46-25.73,12.59-40.64,7.51-15.67-5.33-25.08-19.25-24.17-35.41.91-15.89,12.14-29,28-32.64,12.78-2.94,26.92-.16,36.81,8.31l-9.67,16.72c-4-1.68-7.5-3.62-11.21-4.52a15.86,15.86,0,0,0-18.53,9.44c-3.22,8.61,3.18,18.39,12.88,19.57A18.85,18.85,0,0,0,331,385.32c.72-.64,1.42-1.33,2.54-2.38C337.14,388.25,340.66,393.38,344.76,399.34Z"/> <path class="cls-1" d="M496.09,391.28c-4.55,2.08-8.33-.06-8.49-5.06-.21-7.41,0-14.81,0-22.23a2,2,0,0,1,.37-.88c.1-.17.21-.37.33-.61h18.29V342.17c0-.1-.05-.19-.07-.27H487.45V322.27H465.32v40.05c0,9.93-.1,19.85,0,29.8s5.64,17,15.24,19.48a32.87,32.87,0,0,0,26.58-4.17,23.7,23.7,0,0,0,2.53-2.12c-2.38-6-4.65-11.79-7-17.69C500.22,389,498.23,390.31,496.09,391.28Z"/> <path class="cls-2" d="M556.34,545.49v-4.18c0-12.3,0-24.62,0-36.93,0-1.42.32-3.36,1.25-4.13a12.92,12.92,0,0,1,13.72-2.4A11.39,11.39,0,0,1,578.71,509c0,10.76,0,21.54,0,32.33v4.19H601.5c0-1,.14-2,.14-3,0-14.42-.09-28.83,0-43.25,0-7.7-3.22-13.76-9.05-18.54-8.33-6.84-22.6-7.86-32.52-2.47-1,.58-2.1,1.09-3.68,1.88V373.36c0-11.76,0-23.5,0-35.27-.07-11.55.24-23.13-.18-34.61H533.94l-.21.06v242Z"/> <path class="cls-2" d="M328.05,460.5V437.22H236.91v23.6h32.32v84.45h26.18V481.73c0-6.93-.05-13.86.07-21.23Z"/> <path class="cls-2" d="M715.82,479c-.3-1.25-.56-3.3-.83-4.39h-22.4v70.73h22.76v-4.78c0-12,0-24,0-36.07,0-6.13,3.36-9.35,9.51-8.88,2.59.2,5.11,1.09,8.12,1.77q3.75-10.29,7.67-21.06C731.5,471.69,723.5,473.35,715.82,479Z"/> </svg>