<svg xmlns="http://www.w3.org/2000/svg" xmlns:xlink="http://www.w3.org/1999/xlink" id="Layer_1" x="0px" y="0px" viewBox="0 0 283.5 57.6" style="enable-background:new 0 0 283.5 57.6;" xml:space="preserve" m_init="2270459202203300732"> <style type="text/css"> .st0{fill:#FFFFFF;} </style> <title>Artboard 1</title> <path class="st0" d="M14,28.8c0-8.6,5.8-15.7,14.2-15.7c6.4,0,11.8,3.5,13.1,8.8h14.6C55.2,9.8,44.1,0,28.5,0C12.3,0,0,11.9,0,28.8 s12.3,28.8,28.5,28.8c15.8,0,27-9.7,27.4-23H41.3c-1.1,6.1-6.2,9.8-13.1,9.8C20.5,44.5,14,37.7,14,28.8 M108.4,31.6 c-8.8,2.1-15,9.6-16.4,21.7c-1.4-12.1-7.6-19.6-16.4-21.7c-1.5-9.5,6.8-17.7,16.4-17.8S109.9,22.1,108.4,31.6 M120.8,28.8 C120.8,12.9,107.9,0,92,0S63.2,12.9,63.2,28.8S76.1,57.6,92,57.6c0,0,0,0,0,0C107.9,57.6,120.8,44.7,120.8,28.8 M143.7,15H166V2.2 h-37.6v53.2h15.3V15z M211.2,28.9c0,8.4-6.3,14.6-13.9,14.6s-13.9-6.2-13.9-14.6s6.4-14.6,13.9-14.6S211.2,20.4,211.2,28.9 M210.2,55.5h15.3V2.2h-15.3V8c-3.6-4.5-9-7.1-14.8-6.9c-14.4,0-25.9,11.1-25.9,27.7s11.5,27.7,25.9,27.7c5.8,0.2,11.2-2.4,14.8-6.9 V55.5z M282.2,16.8c0-8.9-7.5-16-22.8-16c-16.3,0-24.6,9.1-24.6,20.3h14.9c0-5.8,3.2-8.9,9.5-8.9c5.9,0,8.4,2.1,8.4,5.5 s-1.9,5.6-6.4,5.6h-8.4v9.6h8.2c5.2,0,7.4,2.3,7.4,5.9c0,3.5-2.3,6.7-8.9,6.7c-7.2,0-10.5-3.7-10.5-9.7H234 c0,13.7,9.6,21.1,25.4,21.1c15.5,0,24.1-6.5,24.1-16.8c0-5.4-2.8-9.3-8.3-11.6C279.5,26.2,282.2,21.7,282.2,16.8"/> </svg>