<svg xmlns="http://www.w3.org/2000/svg" id="CMYK" viewBox="0 0 151.07 151.04" m_init="2270459202203300732"> <defs> <style>.cls-1{fill:#fff;}</style> </defs> <title>fund-logo</title> <path class="cls-1" d="M35.54,116.93V112a.42.42,0,0,1,.09-.27.32.32,0,0,1,.24-.11h2.71a2.2,2.2,0,0,1,0,4.4h-1.7v.89a.4.4,0,0,1-.1.26.3.3,0,0,1-.24.11h-.67a.27.27,0,0,1-.23-.11A.35.35,0,0,1,35.54,116.93Zm1.34-2h1.29a1.55,1.55,0,0,0,.91-.23,1,1,0,0,0,.31-.86,1,1,0,0,0-.31-.86,1.55,1.55,0,0,0-.91-.22H36.88Zm4.11,2,.89-3.76c.24-1,1-1.54,2.36-1.54h1.91a.27.27,0,0,1,.22.11.41.41,0,0,1,.09.26v4.93a.35.35,0,0,1-.1.26.31.31,0,0,1-.24.1h-.67a.33.33,0,0,1-.24-.1.4.4,0,0,1-.09-.27v-1H42.6l-.24,1a.42.42,0,0,1-.16.27.39.39,0,0,1-.26.1h-.71a.24.24,0,0,1-.21-.1A.31.31,0,0,1,41,117S41,117,41,116.94Zm1.88-2.12h2.25v-2.06h-1a.89.89,0,0,0-.59.21,1.1,1.1,0,0,0-.34.58Zm4.4.94a.43.43,0,0,1,.13-.34.42.42,0,0,1,.24-.1h.42c.22,0,.39.15.51.44a.68.68,0,0,0,.3.33.85.85,0,0,0,.47.13h1.11a1,1,0,0,0,.58-.14.53.53,0,0,0,.19-.47.54.54,0,0,0-.19-.47,1,1,0,0,0-.58-.13h-.92a.3.3,0,0,1-.23-.11.38.38,0,0,1-.1-.27v-.32a.41.41,0,0,1,.09-.26.3.3,0,0,1,.23-.11h.8a1.18,1.18,0,0,0,.63-.14.55.55,0,0,0,.2-.47.53.53,0,0,0-.2-.46,1.09,1.09,0,0,0-.63-.14h-.87a.79.79,0,0,0-.79.48.52.52,0,0,1-.48.37h-.43l-.13,0a.39.39,0,0,1-.15-.14.5.5,0,0,1-.08-.27A1.33,1.33,0,0,1,48,112a2.24,2.24,0,0,1,1.33-.43h1.09c1.38,0,2.07.58,2.07,1.73a1.41,1.41,0,0,1-.49,1.13,1.31,1.31,0,0,1,.56,1.14,1.59,1.59,0,0,1-.51,1.32,2.37,2.37,0,0,1-1.48.4H49.21a2.19,2.19,0,0,1-1.33-.44A1.35,1.35,0,0,1,47.27,115.76ZM53.46,112a.43.43,0,0,1,.1-.27.34.34,0,0,1,.24-.11h2.89a2.56,2.56,0,0,1,.89.15,1.49,1.49,0,0,1,1,1.45,1.36,1.36,0,0,1-.48,1,1.42,1.42,0,0,1,.68,1.32,1.53,1.53,0,0,1-.55,1.26,2,2,0,0,1-1.33.44H53.8a.3.3,0,0,1-.24-.11.4.4,0,0,1-.1-.26Zm1.34,1.79h1.9a.49.49,0,0,0,.36-.14.58.58,0,0,0,.14-.41.6.6,0,0,0-.14-.41.49.49,0,0,0-.36-.14H54.8Zm0,2.43h2a.52.52,0,0,0,.43-.18.85.85,0,0,0,.14-.5.76.76,0,0,0-.15-.5.49.49,0,0,0-.42-.18h-2Zm4.8.69V112a.36.36,0,0,1,.1-.27.33.33,0,0,1,.25-.11h.64a.34.34,0,0,1,.25.11.35.35,0,0,1,.1.26V116L63,112a.85.85,0,0,1,.23-.27.45.45,0,0,1,.26-.11h1.06a.34.34,0,0,1,.24.11.43.43,0,0,1,.1.27v4.91a.36.36,0,0,1-.11.26.3.3,0,0,1-.24.11h-.65a.29.29,0,0,1-.24-.11.35.35,0,0,1-.1-.26v-3.66l-1.88,3.66a.71.71,0,0,1-.23.26.46.46,0,0,1-.29.11H59.94a.3.3,0,0,1-.24-.11A.35.35,0,0,1,59.6,116.93Zm5.94-4.54V112a.41.41,0,0,1,.1-.27.3.3,0,0,1,.24-.11h4.51a.3.3,0,0,1,.24.11.36.36,0,0,1,.1.27v.37a.34.34,0,0,1-.1.26.3.3,0,0,1-.24.11H68.81v4.18a.4.4,0,0,1-.1.26.33.33,0,0,1-.24.1H67.8a.33.33,0,0,1-.24-.1.39.39,0,0,1-.09-.26v-4.18H65.88a.3.3,0,0,1-.24-.11A.38.38,0,0,1,65.54,112.39Zm5.91,4.54V112a.41.41,0,0,1,.1-.27.34.34,0,0,1,.25-.11h.65a.34.34,0,0,1,.24.11.35.35,0,0,1,.1.26V116l2-3.94a1,1,0,0,1,.23-.27.5.5,0,0,1,.27-.11h1.06a.3.3,0,0,1,.23.11.38.38,0,0,1,.1.27v4.91a.4.4,0,0,1-.1.26.31.31,0,0,1-.25.11h-.65a.3.3,0,0,1-.24-.11.35.35,0,0,1-.1-.26v-3.66l-1.87,3.66a.85.85,0,0,1-.24.26.44.44,0,0,1-.29.11H71.79a.3.3,0,0,1-.24-.11A.4.4,0,0,1,71.45,116.93Zm6.1.25a.28.28,0,0,1,0-.09.32.32,0,0,1,0-.16l1-1.82a1.87,1.87,0,0,1-.46-3,2,2,0,0,1,1.38-.48h2.78a.31.31,0,0,1,.23.11.39.39,0,0,1,.09.26v4.93a.35.35,0,0,1-.1.26.29.29,0,0,1-.23.1h-.68a.27.27,0,0,1-.23-.11.35.35,0,0,1-.1-.26v-1.66H80l-.85,1.66a.58.58,0,0,1-.52.37h-.9A.17.17,0,0,1,77.55,117.18Zm1.35-3.73c0,.47.2.7.59.7h1.76v-1.39H79.49C79.1,112.76,78.9,113,78.9,113.45Zm7.4,3.49V112a.4.4,0,0,1,.09-.27.34.34,0,0,1,.24-.11h4a.3.3,0,0,1,.23.11.38.38,0,0,1,.1.27v.37a.35.35,0,0,1-.1.26.3.3,0,0,1-.23.11h-3v.95h1.75a2.08,2.08,0,0,1,1.4.45,1.67,1.67,0,0,1,.54,1.35,1.65,1.65,0,0,1-.54,1.34,2.1,2.1,0,0,1-1.4.45H86.62a.28.28,0,0,1-.23-.1A.39.39,0,0,1,86.3,116.94Zm1.34-.75h1.75c.4,0,.6-.23.6-.68s-.2-.68-.6-.68H87.64Zm5,.53a3.82,3.82,0,0,1,0-4.49,3.55,3.55,0,0,1,4.26,0,3.82,3.82,0,0,1,0,4.49,3.55,3.55,0,0,1-4.26,0Zm1-3.66a3,3,0,0,0,0,2.83,1.67,1.67,0,0,0,2.32,0,3,3,0,0,0,0-2.83,1.67,1.67,0,0,0-2.32,0Zm4.89,3.86V112a.36.36,0,0,1,.1-.27.29.29,0,0,1,.24-.12h.66a.3.3,0,0,1,.24.12.36.36,0,0,1,.1.27v1.88h.76a.84.84,0,0,0,.55-.19,1.72,1.72,0,0,0,.45-.61l.55-1.08a.6.6,0,0,1,.51-.39h.82a.15.15,0,0,1,.17.11v.06a.56.56,0,0,1-.06.22l-.77,1.55a2.37,2.37,0,0,1-.37.56,1.2,1.2,0,0,1-.54.31,1,1,0,0,1,.48.33,3.56,3.56,0,0,1,.43.59l.89,1.57a.45.45,0,0,1,.06.2.17.17,0,0,1,0,.07c0,.07-.08.1-.17.1h-.82a.51.51,0,0,1-.3-.11.85.85,0,0,1-.24-.26l-.63-1.1a2.47,2.47,0,0,0-.45-.61.81.81,0,0,0-.55-.2h-.76v1.92a.35.35,0,0,1-.1.26.31.31,0,0,1-.24.1h-.66a.28.28,0,0,1-.24-.11A.36.36,0,0,1,98.54,116.92Zm6.18-.29a3,3,0,0,1-.66-2.16,3.07,3.07,0,0,1,.66-2.16,2.63,2.63,0,0,1,2-.7h.8a2.32,2.32,0,0,1,1.43.47,1.49,1.49,0,0,1,.63,1.27.37.37,0,0,1-.13.33.4.4,0,0,1-.25.1h-.44c-.22,0-.4-.14-.52-.43a.91.91,0,0,0-.88-.62h-.63a1.22,1.22,0,0,0-1,.37,3.49,3.49,0,0,0,0,2.74,1.22,1.22,0,0,0,1,.38h.71a.89.89,0,0,0,.87-.63c.12-.29.29-.43.51-.43h.42a.35.35,0,0,1,.14,0,.32.32,0,0,1,.15.14.45.45,0,0,1,.08.26,1.51,1.51,0,0,1-.62,1.28,2.31,2.31,0,0,1-1.43.46h-.86A2.58,2.58,0,0,1,104.72,116.63Zm5.34.31.89-3.76c.24-1,1-1.54,2.36-1.54h1.92a.29.29,0,0,1,.22.11.47.47,0,0,1,.08.26v4.93a.35.35,0,0,1-.1.26.3.3,0,0,1-.24.1h-.66a.3.3,0,0,1-.24-.1.36.36,0,0,1-.1-.27v-1h-2.52l-.23,1a.48.48,0,0,1-.17.27.39.39,0,0,1-.26.1h-.7a.22.22,0,0,1-.21-.1A.25.25,0,0,1,110,117S110.05,117,110.06,116.94Zm1.88-2.12h2.25v-2.06h-1a.91.91,0,0,0-.59.21,1.1,1.1,0,0,0-.34.58ZM20.59,126.64v-4.92a.36.36,0,0,1,.1-.27.32.32,0,0,1,.25-.1h.64a.33.33,0,0,1,.25.1.35.35,0,0,1,.1.26v4l2-3.94a.82.82,0,0,1,.23-.26.39.39,0,0,1,.26-.11h1.06a.3.3,0,0,1,.24.11.4.4,0,0,1,.1.26v4.92a.36.36,0,0,1-.11.26.34.34,0,0,1-.24.11h-.65a.32.32,0,0,1-.24-.11.35.35,0,0,1-.1-.26V123l-1.88,3.67a.71.71,0,0,1-.23.26.53.53,0,0,1-.29.11H20.93a.34.34,0,0,1-.24-.11A.35.35,0,0,1,20.59,126.64Zm9.25-.3a3.91,3.91,0,0,1,0-4.33,2.65,2.65,0,0,1,2-.7h.8a2.37,2.37,0,0,1,1.44.47,1.49,1.49,0,0,1,.62,1.27.43.43,0,0,1-.12.34.4.4,0,0,1-.25.1h-.44c-.23,0-.4-.15-.53-.43a.89.89,0,0,0-.87-.63h-.63a1.26,1.26,0,0,0-1.06.37,3.52,3.52,0,0,0,0,2.75,1.26,1.26,0,0,0,1.06.37h.7a.91.91,0,0,0,.88-.62c.12-.29.29-.44.51-.44h.42l.14,0a.47.47,0,0,1,.15.14.45.45,0,0,1,.07.27,1.48,1.48,0,0,1-.62,1.27,2.29,2.29,0,0,1-1.42.47h-.87A2.58,2.58,0,0,1,29.84,126.34Zm5.74.3v-4.92a.35.35,0,0,1,.1-.26.27.27,0,0,1,.23-.11h4.62a.27.27,0,0,1,.23.11.35.35,0,0,1,.1.26v4.92a.35.35,0,0,1-.1.26.34.34,0,0,1-.24.11h-.66a.34.34,0,0,1-.24-.11.35.35,0,0,1-.1-.26v-4.18h-2.6v4.18a.35.35,0,0,1-.1.26.3.3,0,0,1-.23.11h-.67a.34.34,0,0,1-.24-.11A.4.4,0,0,1,35.58,126.64Zm6.88-.22a3.82,3.82,0,0,1,0-4.49,3.59,3.59,0,0,1,4.26,0,3.82,3.82,0,0,1,0,4.49,3.55,3.55,0,0,1-4.26,0Zm1-3.65a2.94,2.94,0,0,0,0,2.82,1.67,1.67,0,0,0,2.32,0,2.94,2.94,0,0,0,0-2.82,1.64,1.64,0,0,0-2.32,0Zm4.89,3.87v-4.92a.39.39,0,0,1,.09-.26.3.3,0,0,1,.24-.11h2.71a2.2,2.2,0,0,1,0,4.4h-1.7v.89a.35.35,0,0,1-.1.26.3.3,0,0,1-.24.11h-.66a.3.3,0,0,1-.24-.11A.35.35,0,0,1,48.32,126.64Zm1.34-2H51a1.51,1.51,0,0,0,.9-.22,1,1,0,0,0,.31-.86,1,1,0,0,0-.31-.86,1.51,1.51,0,0,0-.9-.23h-1.3Zm4.27-2.54v-.37a.36.36,0,0,1,.1-.27.3.3,0,0,1,.24-.1h4.51a.31.31,0,0,1,.24.1.41.41,0,0,1,.1.27v.37a.41.41,0,0,1-.1.27.31.31,0,0,1-.24.1H57.19v4.18a.37.37,0,0,1-.09.26.34.34,0,0,1-.24.11h-.67a.34.34,0,0,1-.24-.11.38.38,0,0,1-.1-.26v-4.18H54.27a.3.3,0,0,1-.24-.1A.36.36,0,0,1,53.93,122.09Zm5.91,4.55v-4.92a.36.36,0,0,1,.1-.27.33.33,0,0,1,.25-.1h.65a.33.33,0,0,1,.24.1.35.35,0,0,1,.1.26v4l2-3.94a.82.82,0,0,1,.23-.26.39.39,0,0,1,.26-.11h1.06a.28.28,0,0,1,.24.11.4.4,0,0,1,.1.26v4.92a.36.36,0,0,1-.11.26.32.32,0,0,1-.24.11h-.65a.34.34,0,0,1-.24-.11.35.35,0,0,1-.1-.26V123l-1.88,3.67a.71.71,0,0,1-.23.26.53.53,0,0,1-.29.11H60.18a.34.34,0,0,1-.24-.11A.35.35,0,0,1,59.84,126.64Zm6.36-4.92a.35.35,0,0,1,.1-.26.28.28,0,0,1,.24-.11h2.88a2.77,2.77,0,0,1,.89.14A1.51,1.51,0,0,1,71,122a1.46,1.46,0,0,1,.28.92,1.35,1.35,0,0,1-.48,1,1.41,1.41,0,0,1,.69,1.32,1.56,1.56,0,0,1-.55,1.26,2,2,0,0,1-1.34.45h-3a.3.3,0,0,1-.24-.11.35.35,0,0,1-.1-.26Zm1.34,1.8h1.9a.46.46,0,0,0,.36-.15.55.55,0,0,0,.13-.4.58.58,0,0,0-.13-.41.46.46,0,0,0-.36-.15h-1.9Zm0,2.42h2a.49.49,0,0,0,.42-.18.76.76,0,0,0,.15-.5.78.78,0,0,0-.15-.5.52.52,0,0,0-.42-.18h-2Zm4.8.7v-4.92a.39.39,0,0,1,.09-.26.31.31,0,0,1,.25-.11h.66a.3.3,0,0,1,.24.11.39.39,0,0,1,.09.26v1.78h2.45v-1.78a.35.35,0,0,1,.1-.26.3.3,0,0,1,.24-.11h.66a.28.28,0,0,1,.24.11.35.35,0,0,1,.1.26v4.92a.35.35,0,0,1-.1.26.34.34,0,0,1-.24.11h-.66a.36.36,0,0,1-.34-.37v-2H73.67v2a.37.37,0,0,1-.09.26.34.34,0,0,1-.24.11h-.66a.34.34,0,0,1-.24-.11A.35.35,0,0,1,72.34,126.64Zm6.72-.22a3.82,3.82,0,0,1,0-4.49,3.59,3.59,0,0,1,4.26,0,3.82,3.82,0,0,1,0,4.49,3.55,3.55,0,0,1-4.26,0Zm1-3.65a2.94,2.94,0,0,0,0,2.82,1.67,1.67,0,0,0,2.32,0,2.94,2.94,0,0,0,0-2.82,1.64,1.64,0,0,0-2.32,0Zm4.89,3.87v-4.92a.36.36,0,0,1,.1-.27.32.32,0,0,1,.25-.1h.64a.33.33,0,0,1,.25.1.35.35,0,0,1,.1.26v4l2-3.94a.78.78,0,0,1,.22-.26.43.43,0,0,1,.27-.11h1a.28.28,0,0,1,.24.11.35.35,0,0,1,.1.26v4.92a.4.4,0,0,1-.1.26.36.36,0,0,1-.25.11h-.65a.34.34,0,0,1-.24-.11.35.35,0,0,1-.1-.26V123L87,126.64a.82.82,0,0,1-.23.26.55.55,0,0,1-.29.11H85.26a.34.34,0,0,1-.24-.11A.35.35,0,0,1,84.92,126.64Zm1.44-6.91c0-.13.06-.2.19-.2h.29a.26.26,0,0,1,.25.2.43.43,0,0,0,.46.28.42.42,0,0,0,.45-.28.26.26,0,0,1,.25-.2h.29a.18.18,0,0,1,.2.2,1.14,1.14,0,0,1-.33.86,1.18,1.18,0,0,1-.86.31,1.2,1.2,0,0,1-.87-.31A1.17,1.17,0,0,1,86.36,119.73Zm7.45,6.91v-4.92a.4.4,0,0,1,.09-.27.33.33,0,0,1,.24-.1h4a.27.27,0,0,1,.23.11.35.35,0,0,1,.1.26v.37a.35.35,0,0,1-.1.26.27.27,0,0,1-.23.11h-3v1H96.9a2.09,2.09,0,0,1,1.4.46,1.65,1.65,0,0,1,.54,1.34,1.67,1.67,0,0,1-.54,1.35,2.1,2.1,0,0,1-1.4.45H94.13a.28.28,0,0,1-.23-.11A.37.37,0,0,1,93.81,126.64Zm1.34-.75H96.9c.4,0,.6-.23.6-.68s-.2-.68-.6-.68H95.15Zm5,.53a3.82,3.82,0,0,1,0-4.49,3.59,3.59,0,0,1,4.26,0,3.82,3.82,0,0,1,0,4.49,3.55,3.55,0,0,1-4.26,0Zm1-3.65a2.94,2.94,0,0,0,0,2.82,1.67,1.67,0,0,0,2.32,0,2.94,2.94,0,0,0,0-2.82,1.64,1.64,0,0,0-2.32,0Zm4.89,3.87v-4.92a.39.39,0,0,1,.09-.26.3.3,0,0,1,.24-.11h2.71a2.2,2.2,0,0,1,0,4.4h-1.7v.89a.35.35,0,0,1-.1.26.32.32,0,0,1-.24.11h-.66a.3.3,0,0,1-.24-.11A.35.35,0,0,1,106.05,126.64Zm1.34-2h1.29a1.55,1.55,0,0,0,.91-.22,1,1,0,0,0,.31-.86,1,1,0,0,0-.31-.86,1.55,1.55,0,0,0-.91-.23h-1.29Zm4.61,2v-4.91a.41.41,0,0,1,.1-.27.3.3,0,0,1,.24-.1H113a.3.3,0,0,1,.24.11.39.39,0,0,1,.09.26v1.55h1.76a2,2,0,0,1,1.39.49,1.78,1.78,0,0,1,.55,1.38,1.72,1.72,0,0,1-.56,1.37,2,2,0,0,1-1.38.5h-2.78a.29.29,0,0,1-.22-.11A.39.39,0,0,1,112,126.63Zm1.34-.74h1.76q.6,0,.6-.75t-.6-.75h-1.76Zm4.46.75v-4.92a.4.4,0,0,1,.09-.27.33.33,0,0,1,.25-.1h4a.27.27,0,0,1,.23.11.35.35,0,0,1,.1.26v.37a.39.39,0,0,1-.09.26.29.29,0,0,1-.24.11h-3v1h1.75a2.09,2.09,0,0,1,1.4.46,1.65,1.65,0,0,1,.54,1.34,1.67,1.67,0,0,1-.54,1.35,2.08,2.08,0,0,1-1.4.45h-2.77a.3.3,0,0,1-.23-.11A.37.37,0,0,1,117.8,126.64Zm1.34-.75h1.75c.4,0,.6-.23.6-.68s-.2-.68-.6-.68h-1.75Zm4.53.74v-4.91a.41.41,0,0,1,.1-.27.3.3,0,0,1,.24-.1h.67a.3.3,0,0,1,.24.11.39.39,0,0,1,.09.26v1.55h1.47a2,2,0,0,1,1.39.49,1.78,1.78,0,0,1,.54,1.38,1.71,1.71,0,0,1-.55,1.37,2,2,0,0,1-1.38.5H124a.29.29,0,0,1-.22-.11A.39.39,0,0,1,123.67,126.63Zm1.34-.74h1.47q.6,0,.6-.75t-.6-.75H125Zm4.11.75v-4.92a.4.4,0,0,1,.1-.26.3.3,0,0,1,.24-.11h.67a.3.3,0,0,1,.24.11.39.39,0,0,1,.09.26v4.92a.39.39,0,0,1-.09.26.34.34,0,0,1-.24.11h-.67a.34.34,0,0,1-.24-.11A.38.38,0,0,1,129.12,126.64ZM31.07,136a3.86,3.86,0,0,1,0-4.32,2.63,2.63,0,0,1,2-.7h.8a2.31,2.31,0,0,1,1.43.46,1.51,1.51,0,0,1,.63,1.28.39.39,0,0,1-.13.33.4.4,0,0,1-.25.1h-.44c-.22,0-.4-.14-.52-.43a.91.91,0,0,0-.88-.63h-.63a1.25,1.25,0,0,0-1,.37,2.41,2.41,0,0,0-.28,1.38,2.37,2.37,0,0,0,.28,1.37,1.22,1.22,0,0,0,1,.37h.71a.88.88,0,0,0,.87-.62c.12-.29.29-.43.51-.43h.42a.34.34,0,0,1,.29.16A.48.48,0,0,1,36,135a1.52,1.52,0,0,1-.62,1.28,2.31,2.31,0,0,1-1.43.46h-.86A2.58,2.58,0,0,1,31.07,136Zm5.34.31.89-3.76c.24-1,1-1.54,2.36-1.54h1.92a.29.29,0,0,1,.22.11.45.45,0,0,1,.08.26v4.93a.35.35,0,0,1-.1.26.3.3,0,0,1-.24.1h-.66a.3.3,0,0,1-.24-.1.36.36,0,0,1-.1-.27v-1H38l-.24,1a.48.48,0,0,1-.17.27.39.39,0,0,1-.26.1h-.7a.21.21,0,0,1-.21-.11.22.22,0,0,1-.05-.16A.28.28,0,0,1,36.41,136.35Zm1.88-2.12h2.25v-2.06h-1a.91.91,0,0,0-.59.21,1.1,1.1,0,0,0-.34.58ZM43,136.34v-4.92a.35.35,0,0,1,.1-.26.34.34,0,0,1,.24-.11H44a.3.3,0,0,1,.23.11.35.35,0,0,1,.1.26v1.78H46.8v-1.78a.4.4,0,0,1,.1-.26.34.34,0,0,1,.24-.11h.66a.34.34,0,0,1,.25.11.39.39,0,0,1,.09.26v4.92a.35.35,0,0,1-.1.26.3.3,0,0,1-.24.11h-.66a.33.33,0,0,1-.24-.1.4.4,0,0,1-.1-.26v-2H44.36v2a.35.35,0,0,1-.1.26.29.29,0,0,1-.23.1h-.67a.34.34,0,0,1-.24-.11A.35.35,0,0,1,43,136.34Zm6.26,0v-4.91a.35.35,0,0,1,.1-.26.31.31,0,0,1,.24-.12h.67a.28.28,0,0,1,.23.12.35.35,0,0,1,.1.26v1.89h.76a.82.82,0,0,0,.55-.19,1.72,1.72,0,0,0,.45-.61l.55-1.09a.59.59,0,0,1,.52-.38h.82a.15.15,0,0,1,.16.11.13.13,0,0,1,0,.06.48.48,0,0,1-.06.21L53.61,133a2.28,2.28,0,0,1-.38.56,1.13,1.13,0,0,1-.54.32.9.9,0,0,1,.48.32,3.7,3.7,0,0,1,.44.6l.88,1.57a.45.45,0,0,1,.06.2.13.13,0,0,1,0,.06c0,.08-.08.11-.17.11h-.81a.53.53,0,0,1-.3-.11.77.77,0,0,1-.25-.26l-.63-1.1a2.47,2.47,0,0,0-.45-.61.81.81,0,0,0-.55-.2h-.76v1.92a.35.35,0,0,1-.1.26.29.29,0,0,1-.23.1h-.67a.34.34,0,0,1-.24-.11A.39.39,0,0,1,49.28,136.33ZM55,131.79v-.37a.35.35,0,0,1,.1-.26.28.28,0,0,1,.24-.11H59.8a.3.3,0,0,1,.24.11.39.39,0,0,1,.09.26v.37a.4.4,0,0,1-.09.27.34.34,0,0,1-.24.11H58.21v4.18a.35.35,0,0,1-.1.26.29.29,0,0,1-.23.1h-.67a.3.3,0,0,1-.24-.1.35.35,0,0,1-.1-.26v-4.18H55.29a.3.3,0,0,1-.24-.11A.36.36,0,0,1,55,131.79Zm5,2.67V134a.24.24,0,0,1,.06-.17.19.19,0,0,1,.16-.07h2.68a.18.18,0,0,1,.15.07.21.21,0,0,1,.07.17v.47a.24.24,0,0,1-.07.18.2.2,0,0,1-.15.06H60.21a.21.21,0,0,1-.16-.06A.28.28,0,0,1,60,134.46Zm4,1.88v-4.92a.35.35,0,0,1,.1-.26.3.3,0,0,1,.23-.11h4.61a.32.32,0,0,1,.24.11.35.35,0,0,1,.1.26v4.92a.4.4,0,0,1-.1.26.34.34,0,0,1-.24.11h-.66a.3.3,0,0,1-.24-.11.35.35,0,0,1-.1-.26v-4.17h-2.6v4.17a.35.35,0,0,1-.1.26.3.3,0,0,1-.23.11h-.67a.34.34,0,0,1-.24-.11A.35.35,0,0,1,64,136.34Zm6.41,0v-4.91a.38.38,0,0,1,.1-.26.3.3,0,0,1,.24-.11h4.1a.3.3,0,0,1,.23.11.35.35,0,0,1,.1.26v.37a.36.36,0,0,1-.1.27.3.3,0,0,1-.23.11h-3.1v1.14h2.67a.3.3,0,0,1,.23.11.35.35,0,0,1,.1.26v.38a.35.35,0,0,1-.1.26.3.3,0,0,1-.23.11H71.74v1.16h3.09a.3.3,0,0,1,.23.11.35.35,0,0,1,.1.26v.38a.4.4,0,0,1-.1.26.34.34,0,0,1-.24.11H70.74a.34.34,0,0,1-.24-.11A.41.41,0,0,1,70.4,136.33Zm5.3-4.54v-.37a.39.39,0,0,1,.09-.26.31.31,0,0,1,.25-.11h4.51a.3.3,0,0,1,.24.11.39.39,0,0,1,.09.26v.37a.4.4,0,0,1-.09.27.34.34,0,0,1-.24.11H79v4.18a.35.35,0,0,1-.1.26.29.29,0,0,1-.23.1H78a.29.29,0,0,1-.23-.1.35.35,0,0,1-.1-.26v-4.18H76a.34.34,0,0,1-.25-.11A.4.4,0,0,1,75.7,131.79Zm5.91,4.54v-4.91a.34.34,0,0,1,.1-.26.28.28,0,0,1,.24-.11H86a.32.32,0,0,1,.24.11.4.4,0,0,1,.1.26v.37a.41.41,0,0,1-.1.27.32.32,0,0,1-.24.11H83v1.14h2.66a.32.32,0,0,1,.24.11.4.4,0,0,1,.1.26v.38a.4.4,0,0,1-.1.26.32.32,0,0,1-.24.11H83v1.16H86a.3.3,0,0,1,.23.11.39.39,0,0,1,.09.26v.38a.35.35,0,0,1-.1.26.3.3,0,0,1-.23.11H82a.3.3,0,0,1-.24-.11A.36.36,0,0,1,81.61,136.33Zm5.6,0v-4.92a.35.35,0,0,1,.1-.26.3.3,0,0,1,.23-.11h2.71a2.2,2.2,0,0,1,0,4.4h-1.7v.89a.35.35,0,0,1-.1.26.3.3,0,0,1-.24.11h-.66a.3.3,0,0,1-.24-.11A.35.35,0,0,1,87.21,136.34Zm1.34-2h1.3a1.51,1.51,0,0,0,.9-.22,1,1,0,0,0,.31-.86,1,1,0,0,0-.31-.86,1.51,1.51,0,0,0-.9-.22h-1.3Zm4.61,2v-4.93a.4.4,0,0,1,.1-.26.29.29,0,0,1,.24-.11h4a.32.32,0,0,1,.24.11.4.4,0,0,1,.1.26v.37a.36.36,0,0,1-.1.27.3.3,0,0,1-.23.11h-3v1h1.76a2.1,2.1,0,0,1,1.4.45,1.95,1.95,0,0,1,0,2.69,2.12,2.12,0,0,1-1.4.45H93.48a.3.3,0,0,1-.23-.1A.39.39,0,0,1,93.16,136.35Zm1.34-.76h1.76c.4,0,.6-.22.6-.68s-.2-.67-.6-.67H94.5Zm4.12-4.17,0-.14a.27.27,0,0,1,0-.12.22.22,0,0,1,.2-.11h.75a.47.47,0,0,1,.47.36l.41,1.1a1.72,1.72,0,0,0,.46.71,1.09,1.09,0,0,0,.72.23h.43l.65-2a.47.47,0,0,1,.17-.27.39.39,0,0,1,.27-.1h.72a.23.23,0,0,1,.21.11.29.29,0,0,1,0,.14.52.52,0,0,1,0,.11l-1.16,3.68a2.48,2.48,0,0,1-.73,1.2,2,2,0,0,1-1.36.42H100a.33.33,0,0,1-.24-.1.37.37,0,0,1-.09-.25v-.42a.38.38,0,0,1,.09-.25.37.37,0,0,1,.24-.1h.79c.47,0,.79-.34,1-1h-.31a2.18,2.18,0,0,1-1.4-.4,3.18,3.18,0,0,1-.86-1.32Zm6.22,4.92v-4.92a.35.35,0,0,1,.1-.26.3.3,0,0,1,.23-.11h2.71a2.2,2.2,0,0,1,0,4.4h-1.7v.89a.35.35,0,0,1-.1.26.3.3,0,0,1-.23.11h-.67a.32.32,0,0,1-.24-.11A.35.35,0,0,1,104.84,136.34Zm1.34-2h1.3a1.51,1.51,0,0,0,.9-.22,1,1,0,0,0,.31-.86,1,1,0,0,0-.31-.86,1.51,1.51,0,0,0-.9-.22h-1.3Zm4.61,2v-4.93a.4.4,0,0,1,.1-.26.29.29,0,0,1,.24-.11h3.44a.3.3,0,0,1,.24.11.39.39,0,0,1,.09.26v.37a.4.4,0,0,1-.09.27.34.34,0,0,1-.24.11h-2.44v4.18a.39.39,0,0,1-.09.26.33.33,0,0,1-.24.1h-.67a.33.33,0,0,1-.24-.1A.4.4,0,0,1,110.79,136.35Zm4.1,0,.9-3.76c.24-1,1-1.54,2.36-1.54h1.91a.28.28,0,0,1,.22.11.39.39,0,0,1,.09.26v4.93a.4.4,0,0,1-.1.26.33.33,0,0,1-.24.1h-.67a.3.3,0,0,1-.24-.1.4.4,0,0,1-.09-.27v-1h-2.52l-.24,1a.47.47,0,0,1-.16.27.39.39,0,0,1-.27.1h-.7a.23.23,0,0,1-.21-.11.28.28,0,0,1-.05-.16S114.89,136.38,114.89,136.35Zm1.89-2.12H119v-2.06h-1a.91.91,0,0,0-.6.21,1.17,1.17,0,0,0-.34.58Zm-71-28.17a6.28,6.28,0,0,1,0-8.74A7.65,7.65,0,0,1,50.57,96V95a.92.92,0,0,1,.25-.66.77.77,0,0,1,.6-.27H53a.77.77,0,0,1,.6.27,1,1,0,0,1,.24.66v1a7.68,7.68,0,0,1,4.79,1.36,6.28,6.28,0,0,1,0,8.74,7.62,7.62,0,0,1-4.79,1.37v1a.91.91,0,0,1-.25.65.76.76,0,0,1-.59.27H51.42a.78.78,0,0,1-.59-.27.92.92,0,0,1-.26-.65v-1A7.59,7.59,0,0,1,45.79,106.06Zm2.44-6.7a3.49,3.49,0,0,0,0,4.66,3.57,3.57,0,0,0,2.44.78V98.59A3.62,3.62,0,0,0,48.23,99.36Zm5.57,5.44a3.59,3.59,0,0,0,2.44-.78,3.49,3.49,0,0,0,0-4.66,3.64,3.64,0,0,0-2.44-.77Zm9.58,2.45q-1.8-1.75-1.8-5.56t1.8-5.55a7.31,7.31,0,0,1,5.28-1.74,7.28,7.28,0,0,1,5.27,1.74q1.8,1.76,1.8,5.55t-1.8,5.56A7.28,7.28,0,0,1,68.66,109,7.31,7.31,0,0,1,63.38,107.25Zm2.4-9a7.31,7.31,0,0,0,0,7,4.12,4.12,0,0,0,5.75,0,7.31,7.31,0,0,0,0-7,4.12,4.12,0,0,0-5.75,0Zm11.72,9.57V95.62a1,1,0,0,1,.24-.66.8.8,0,0,1,.61-.27H80a.76.76,0,0,1,.59.27,1,1,0,0,1,.24.66V100h6V95.62A1,1,0,0,1,87.1,95a.78.78,0,0,1,.59-.27h1.64a.77.77,0,0,1,.6.27,1,1,0,0,1,.24.66v12.15a.94.94,0,0,1-.25.65.79.79,0,0,1-.59.27H87.69a.77.77,0,0,1-.59-.26.89.89,0,0,1-.24-.64v-5h-6v5a.89.89,0,0,1-.24.64.75.75,0,0,1-.59.26H78.35a.8.8,0,0,1-.6-.27A.9.9,0,0,1,77.5,107.77Zm14,0v-.93a.93.93,0,0,1,.24-.65.78.78,0,0,1,.58-.26H93l1.63-7.39c.56-2.56,2.47-3.85,5.72-3.85h4.75a.77.77,0,0,1,.58.26.93.93,0,0,1,.24.65v12.19a.89.89,0,0,1-.24.64.73.73,0,0,1-.58.26H92.31a.78.78,0,0,1-.59-.27A.93.93,0,0,1,91.48,107.77Zm4.92-1.84h6.2V97.45H100a1.92,1.92,0,0,0-1.37.51,2.77,2.77,0,0,0-.75,1.42Z"/> <path class="cls-1" d="M73.28,77.48c-1.27-.09-2.43-.25-3.37-.41a34.92,34.92,0,0,0-8.06-19.26c-8-9.2-13.6-16.75-16.17-28.27-2.25-10.11,1.89-14.35,10.25-17.28a7.65,7.65,0,0,0-.49.82c-3.23,6-1.43,16.34,4.74,23.69S70.48,55.38,72,67.28Zm31.79-47.94c2.25-10.11-1.88-14.34-10.24-17.27a6.52,6.52,0,0,1,.39.62c3.32,5.92,1.49,16.57-4.66,23.89s-10.29,18.6-11.8,30.5l-1.29,10.2a34,34,0,0,0,4.28-.58A30.28,30.28,0,0,1,88.9,57.81C96.93,48.61,102.5,41.06,105.07,29.54ZM57.94,12.32c.08-.24.18-.49.27-.74.48-.12,1-.25,1.47-.35a84.1,84.1,0,0,1,31.39,0c.51.1,1,.23,1.48.35.07.21.15.41.22.61,3.4,10.09-2.21,20.65-17.39,20.65S54.63,22.38,57.94,12.32Zm11.6,11a5.84,5.84,0,1,0,5.84-5.84A5.83,5.83,0,0,0,69.54,23.32Zm12,61.4.56,0c4.49-.16,7.3-.46,9.2-.67A17.68,17.68,0,0,1,94,83.81h0c3.69,0,2.6,6.63,6.1,6.63H50.93c2.5,0,2.42-6.63,6.11-6.63h0a16.41,16.41,0,0,1,2.64.22c1.83.21,4.54.51,9,.67l.57,0a19.09,19.09,0,0,0,.11-2,8.05,8.05,0,0,0-1.89-5.63,32.06,32.06,0,0,0,15.89,0,8.05,8.05,0,0,0-1.89,5.63A16.49,16.49,0,0,0,81.55,84.72Zm4.83,5a4.25,4.25,0,0,0,1.75-.31l-4.64,0a2.6,2.6,0,0,0,.32.26ZM67,89.73a3.54,3.54,0,0,0,.32-.27l-4.33,0a4.44,4.44,0,0,0,1.75.3Zm2.17-4.31c-4.29-.14-7-.41-8.93-.62A10.05,10.05,0,0,1,61,86.6l0,.08c1.41.07,4.4.22,7.75.33A10,10,0,0,0,69.12,85.42Zm-8,1.79c.06.16.12.31.19.46,1.2,0,3.88.13,7,.2l.15-.34C65.38,87.43,62.6,87.29,61.17,87.21Zm28.54.46c.07-.16.13-.31.19-.48-1.31.07-4.27.23-7.68.34,0,.11.09.23.14.34C85.77,87.8,88.65,87.7,89.71,87.67Zm1.17-2.88c-2,.21-4.83.49-9.24.63A11.28,11.28,0,0,0,82,87c3.65-.12,6.85-.29,8.07-.35l0-.06A9.74,9.74,0,0,1,90.88,84.79Z"/> </svg>