<svg xmlns="http://www.w3.org/2000/svg" id="Слой_1" data-name="Слой 1" viewBox="0 0 300 297.43" m_init="2270459202203300732"> <defs> <style>.cls-1{fill:#fff;}</style> </defs> <title>Монтажная область 15</title> <rect class="cls-1" y="253.23" width="300" height="4.66"/> <rect class="cls-1" y="292.77" width="300" height="4.66"/> <polygon class="cls-1" points="127.75 145.27 127.75 142.09 129.33 142.09 129.33 134.15 127.75 134.15 127.75 131.75 129.33 129.38 132.51 129.38 132.51 142.09 134.1 142.09 134.1 145.27 127.75 145.27"/> <path class="cls-1" d="M143.15,132.56h-3.4v3.18h3.4Zm-6.35,7.95H140v1.58h3.18v-3.17h-3.81l-2.54-2.55v-4.44l2.54-2.54h4.45l2.54,2.54v10.8l-2.54,2.54h-4.45l-2.54-2.54Z"/> <polygon class="cls-1" points="149.76 145.27 149.76 138.28 152.3 135.74 156.11 135.74 156.11 132.56 152.94 132.56 152.94 134.15 149.76 134.15 149.76 131.93 152.3 129.38 156.75 129.38 159.29 131.93 159.29 136.37 156.75 138.92 152.94 138.92 152.94 142.09 156.11 142.09 156.11 140.5 159.29 140.5 159.29 145.27 149.76 145.27"/> <polygon class="cls-1" points="162.72 145.27 162.72 142.09 164.31 142.09 169.08 132.56 165.9 132.56 165.9 134.15 162.72 134.15 162.72 129.38 172.25 129.38 172.25 132.56 167.49 142.09 169.08 142.09 169.08 145.27 162.72 145.27"/> <path class="cls-1" d="M140.5,119.62h2.12v-6.38H140.5Zm-.43,2.12-1.7-1.7v-7.23l1.7-1.7h3l1.7,1.7V120l-1.7,1.7Z"/> <polygon class="cls-1" points="147.19 121.74 145.49 120.04 145.49 112.81 147.19 111.11 150.17 111.11 151.87 112.81 151.87 114.3 149.74 114.3 149.74 113.24 147.62 113.24 147.62 119.62 149.74 119.62 149.74 118.55 151.87 118.55 151.87 120.04 150.17 121.74 147.19 121.74"/> <polygon class="cls-1" points="152.61 121.74 152.61 111.11 154.74 111.11 154.74 115.36 156.86 115.36 156.86 111.11 158.99 111.11 158.99 121.74 156.86 121.74 156.86 117.49 154.74 117.49 154.74 121.74 152.61 121.74"/> <rect class="cls-1" x="127.61" y="124.59" width="44.77" height="2.14"/> <path class="cls-1" d="M10.08,53.82,7.94,52.3V32.44c.71-1,1.42-2,2.14-3.07q3.39-1.12,6.79-2.2L19,28.85v3.57q2.88-.89,5.76-1.74V25.42l-4.61-3.51Q13.45,24,6.8,26.24q-2.26,3.23-4.52,6.47V55.89L6.8,59.22q6.65-2.28,13.37-4.34c1.53-2.1,3.07-4.2,4.61-6.28v-5Q21.9,44.5,19,45.39v3.32l-2.15,2.91q-3.41,1.08-6.79,2.2"/> <path class="cls-1" d="M53.45,17.34l2.14-.47V12.63Q50.47,13.74,45.37,15q-3.34.81-6.68,1.68Q33.59,18,28.5,19.44v4.24l2.17-.61V47.52l-2.17.61v4.29Q33.59,51,38.69,49.64V45.35l-2.17.57V21.47l2.17-.57c2.22-.57,4.45-1.14,6.68-1.68l2.13-.51V43.16l-2.13.51V48q5.1-1.23,10.22-2.35V41.32l-2.14.47Z"/> <path class="cls-1" d="M76.59,35c-.73.87-1.47,1.74-2.2,2.62q-3.49.6-7,1.26l-2.2-1.82V17.22c.73-.92,1.46-1.85,2.2-2.77q3.46-.66,7-1.26l2.2,2ZM64.05,10.87q-2.32,2.91-4.64,5.84V39.89l4.64,4q6.84-1.35,13.72-2.49c1.57-1.89,3.15-3.77,4.72-5.65V12.52c-1.57-1.39-3.15-2.77-4.72-4.14Q70.9,9.52,64.05,10.87"/> <path class="cls-1" d="M74.23,34.4a5.12,5.12,0,0,1-.46.56l-.41.46c-1.65.29-3.31.59-5,.9-.17-.17-.33-.31-.46-.42l-.36-.29V17.79l.82-1.07c1.65-.31,3.31-.61,5-.9l.87.76ZM67.94,15.73,66.5,17.49V36.32a5,5,0,0,0,.7.56,7,7,0,0,1,.74.6q3-.55,5.93-1.08c.28-.35.5-.62.67-.8s.43-.48.77-.88V15.89l-1.44-1.23q-3,.51-5.93,1.07"/> <path class="cls-1" d="M102,16.45l-.87.91q-2.22.24-4.44.51V12.36l4.44-.51.87.82Zm-6.34-5v7.7c2-.24,4-.48,6-.7L103,16.79V12l-1.45-1.32c-2,.22-4,.45-6,.7"/> <path class="cls-1" d="M104.33,17.21l-2.22,2.49c-2.6.28-5.19.58-7.79.91V10.2c2.6-.33,5.19-.64,7.79-.92l2.22,2.11ZM86.24,7.06V11.3L88.4,11V35.44l-2.16.31V40c3.4-.5,6.79-.95,10.2-1.36V34.39l-2.12.26V24.9q5.59-.7,11.19-1.27l4.7-5.35V9.14c-1.56-1.49-3.13-3-4.7-4.45q-9.65,1-19.27,2.37"/> <path class="cls-1" d="M118.28,7.82q3.1-.23,6.21-.4V31.87l-2.23.14v4.28c3.49-.21,7-.39,10.46-.53V31.47l-2.23.1V7.11c2.09-.09,4.18-.16,6.27-.23V9.13L140.91,9V2.54q-13.42.29-26.82,1.37v6.48l4.19-.32Z"/> <path class="cls-1" d="M173.29,7.35l2.22.12V3.18c-2.93-.17-5.87-.31-8.8-.42q-6.77,10.91-13.52,22v-18l2.22,0V2.48q-5.28-.06-10.57,0V6.77l2.23,0V31.2l-2.23,0v4.23q4.31,0,8.61,0,6.86-11.35,13.73-22.5V31.52L165,31.44v4.24q5.28.18,10.56.48V31.92l-2.22-.12Z"/> <path class="cls-1" d="M195.21,15.18l-.88.77-4.44-.42V10.94l4.44.42.88,1Zm-6.35-5.41v6.79l6,.57,1.44-1.38V12l-1.44-1.63-6-.57"/> <path class="cls-1" d="M197.58,16.45l-2.22,2.06q-3.88-.41-7.8-.73V8.28c2.6.22,5.21.47,7.8.73l2.22,2.59Zm0,15-2.22,2q-3.88-.4-7.8-.74V22.06c2.6.23,5.21.47,7.8.74l2.22,2.48Zm5.88-13.26v-7.6c-1.56-1.83-3.13-3.64-4.69-5.45q-9.65-1.07-19.32-1.71V7.67l2.17.15V32.27l-2.17-.15V36.4q9.66.65,19.32,1.72l4.69-4.36V24.83q-1.59-1.86-3.2-3.7l3.2-2.94"/> <path class="cls-1" d="M195.21,30.18a3,3,0,0,1-.47.44l-.41.34q-2.22-.23-4.44-.42V24.67q2.22.2,4.44.42l.88,1Zm-6.35-6.68v8q3,.26,6,.57a6.46,6.46,0,0,1,.67-.62l.77-.66V25.65c-.31-.34-.55-.59-.72-.76s-.41-.45-.72-.82l-6-.57"/> <path class="cls-1" d="M232.63,14.46l2.14.41V10.64q-5.13-1-10.28-1.88V13l2.15.38v9.19q-5.56-1-11.14-1.82V11.56l2.21.33V7.66c-3.46-.54-6.92-1-10.39-1.49v4.24l2.22.3V35.16l-2.22-.3v4.29c3.47.45,6.93,1,10.39,1.48V36.34L215.5,36V25.75q5.58.83,11.14,1.81V37.82l-2.15-.37v4.28q5.14.89,10.28,1.88V39.33l-2.14-.42Z"/> <path class="cls-1" d="M249.45,33.67q2-5.61,4-11.21,2,6.55,4,13.12-4-1-8-1.91m9.23-13.44,2.58.66V16.65q-7.63-2-15.32-3.68V17.2l2.29.52q-4,11.31-8,22.71l-1.58-.33v4.29q5,1,9.93,2.15V42.25l-2-.45q.94-2.67,1.88-5.34,5,1.14,10,2.39.93,3.12,1.87,6.24l-2-.51v4.29q5,1.25,9.9,2.61V47.2l-1.51-.42q-4-13.32-8-26.55"/> <path class="cls-1" d="M254.12,32.32,252.8,32c.14-.37.24-.71.33-1a4.12,4.12,0,0,1,.33-.87c.13.47.26.91.38,1.32s.21.69.28.88m-1.7-2.78c-.32.93-.7,2-1.14,3.23l4.36,1c-.2-.69-.39-1.28-.56-1.77s-.33-1-.48-1.47-.31-1-.48-1.64-.39-1.37-.66-2.28c-.37,1-.72,2-1,2.89"/> <path class="cls-1" d="M299,55.62v6.94q-6.24-2.23-12.53-4.27V51.35l2.15.7V44c-2-.65-3.93-1.28-5.9-1.9-.33.24-.58.4-.75.51s-.4.25-.7.47V56.64Q276,55,270.74,53.53V46.59l2.17.62V38.48l2.66-2c-.89-1.2-1.78-2.39-2.66-3.59V24.18l5.42-4.06q10.38,3.15,20.63,6.81v6.94l-2.08-.74V54.88l2.08.74m-29.48-2.44q-6.24-1.76-12.52-3.32V42.92l1.52.38c-.17-.55-.34-1.08-.51-1.58s-.35-1.1-.56-1.8q-4-1-8-1.91c-.17.54-.32,1-.46,1.32s-.32.86-.56,1.56l1.48.34v6.94q-6.28-1.45-12.58-2.72v-7l2,.41q.92-2.67,1.81-5.14c.59-1.64,1.18-3.29,1.75-4.93l1.74-5q.85-2.49,1.83-5.19l-1.83-.4V11.35q9,2,17.9,4.31V22.6l-2.07-.54q1.82,6.07,3.54,11.77t3.58,11.87l1.91.53Zm-33.38-8q-6.47-1.28-12.95-2.36v-7l2.21.38V28.66q-4.26-.73-8.52-1.38v7.6l2.16.34v6.94q-6.5-1-13-1.86V33.36l2.21.29V11.9L206,11.62V4.67q6.51.84,13,1.86v6.94l-2.16-.33v6.48q4.26.64,8.52,1.38V14.52l-2.21-.37V7.2q6.49,1.09,12.95,2.37v6.94l-2.2-.43V37.83l2.2.43V45.2M204.8,34.49q-2.76,2.49-5.51,5-10.56-1.19-21.14-1.85V30.7l2.17.15V9.1L178.15,9V2q10.59.68,21.14,1.85l5.51,6.32v8.68l-2.73,2.47,2.73,3.14Zm-27.94,3.08q-6.63-.41-13.26-.61V30l2.23.07V17.79q-5.82,9.42-11.66,19-5.34,0-10.67,0V29.86l2.22,0V8.08l-2.22,0V1.17c4.42-.07,8.84-.06,13.26,0V8.11l-2.23,0V20q5.72-9.36,11.4-18.57c3.65.13,7.29.3,10.93.53V8.88l-2.23-.13V30.49l2.23.13Zm.69-8-.48,0h0l-1.3-.08V9.89l1.77.1,1.7.11V29.7L178,29.62h0l-.45,0m28.28-16.93,1.29.16V32.44l-1.29-.17V24.1c-.74-.86-1.48-1.71-2.21-2.57.73-.68,1.47-1.35,2.21-2Zm-63.58-2.34c-2.28,0-4.56.09-6.84.17V8.3l-3.57.14V30.18L134,30.1V37q-6.52.24-13,.66V30.76l2.17-.14V8.88l-3.57.23V11.3c-2.27.16-4.55.34-6.82.53V2.69q14.73-1.24,29.5-1.5Zm-30.69,8.34q-2.78,3.09-5.53,6.23-5.22.53-10.42,1.17v7.09l2.12-.25v6.94q-6.41.75-12.77,1.7V34.61l2.16-.31V12.55L85,12.87V5.92Q95.48,4.36,106,3.31q2.76,2.55,5.53,5.15V18.67M83.73,36.07c-1.82,2.17-3.63,4.34-5.45,6.53q-7.38,1.21-14.74,2.67c-1.8-1.53-3.61-3-5.41-4.55V16.42q2.7-3.41,5.41-6.78c4.9-1,9.82-1.87,14.74-2.67,1.82,1.59,3.63,3.19,5.45,4.8ZM57.06,19V38.6l-1.22.26V19.26L57.06,19m-.15,27.65q-6.44,1.38-12.86,3V42.67l2.19-.53V20.39l-2.19.53L40,22l-2.12.55V44.25L40,43.7v6.94q-6.39,1.65-12.76,3.48V47.18l2.17-.62V24.81l-2.17.62V18.49Q33.55,16.66,40,15l4.1-1q6.42-1.58,12.86-3v7l-2.19.47V40.18l2.19-.48v6.95M26,48.8q-2.67,3.62-5.32,7.26-7.22,2.2-14.37,4.66L1,56.89V32.59q2.63-3.77,5.26-7.5,7.16-2.46,14.37-4.66L26,24.51v7.14q-4.12,1.2-8.22,2.49V29.75l-1.4-1c-1.94.61-3.87,1.24-5.79,1.87l-1.4,2V51.37a4.07,4.07,0,0,0,.68.46,4.57,4.57,0,0,1,.72.5c1.92-.64,3.85-1.26,5.79-1.88.26-.39.48-.68.65-.89l.75-1V44.45C20.5,43.59,23.24,42.77,26,42ZM27,32.47V26.55l1.26-.36v19.6L27,46.15V40.53Q21.87,42,16.72,43.66V48.4a7.74,7.74,0,0,1-.45.63c-.14.16-.27.33-.4.51-1.62.51-3.23,1-4.84,1.57a5,5,0,0,0-.45-.36l-.35-.24V32.69l.8-1.18c1.61-.53,3.22-1.06,4.84-1.57l.85.65v5Q21.87,34,27,32.47M86,13.78v19.6l-1.24.18V14L86,13.78M300,35.31V26.18q-11-4-22.12-7.32c-2,1.5-4.05,3-6.08,4.55v9.65c.74,1,1.47,1.95,2.21,2.93l-2.21,1.66v8.17l-1.21-.34h0l-.45-.12-.45-.13h0l-1.31-.37q-.86-2.9-1.67-5.56L265.12,34l-1.56-5.16c-.52-1.72-1.06-3.5-1.59-5.35l1.66.44V14.83q-10-2.67-20.13-4.85v9.14l1.42.31q-.91,2.66-1.7,4.88l-1.56,4.37c-.51,1.42-1,2.86-1.53,4.3s-1,3-1.63,4.69l-1.33-.27h0l-.48-.09-.44-.09h0L235,37V17.37l2.14.43V8.66q-7.53-1.51-15.09-2.76V15l2.15.36v4.29c-2.1-.36-4.21-.7-6.31-1V14.37l2.21.35V5.59q-7.6-1.23-15.23-2.18V8.78c-1.71-2-3.43-4-5.15-6Q188.89,1.57,178,.89h0l-.64,0-.29,0h0Q171.19.47,165.31.26q-4.81,7.8-9.64,15.7V9.17l2.23,0V.07q-7.28-.13-14.56,0h-.93Q127,.33,111.66,1.66V7q-2.58-2.46-5.16-4.89Q95.16,3.27,83.88,5v5.37Q81.32,8,78.74,5.77,70.9,7,63.08,8.61L58,15V9.66q-7.51,1.61-15,3.46l-1.92.48q-7.5,1.9-14.93,4.07V23l-5-3.87q-7.66,2.32-15.27,4.95Q2.93,28.29,0,32.51V57.72C2,59.13,3.9,60.56,5.85,62q7.61-2.61,15.27-5c1.67-2.29,3.34-4.58,5-6.85v5.36q7.44-2.16,14.93-4.07V42.34l-2.18.56V23.3l2.18-.56L43,22.26l2.13-.53V41.34L43,41.86V51q7.47-1.86,15-3.46V42.18c1.7,1.43,3.4,2.86,5.1,4.31q7.82-1.56,15.66-2.85l5.14-6.16v5.36q7.45-1.12,14.93-2V31.71L96.64,32v-4.9q4.92-.6,9.86-1.08,3-3.46,6.09-6.89V13c2.71-.23,5.41-.44,8.12-.62V10.1l1.34-.08q0,9.8,0,19.6l-2.17.14V38.9q7.61-.52,15.22-.77V29l-2.17.08V9.46l1.4-.05v2.25c3-.11,6-.18,9-.23V9.19l1.3,0v19.6l-2.23,0v9.14q6.19-.11,12.38,0,5-8.14,10-16.17V29l-2.23-.07v9.14c5,.14,9.94.37,14.91.68q11.18.69,22.33,2,2.58-2.4,5.15-4.75v5.36q7.64,1,15.23,2.17V34.32L217.92,34V28.57c2.1.32,4.21.66,6.31,1V35l-2.15-.36v9.14q7.33,1.22,14.64,2.67c4.76.95,9.52,2,14.25,3.09V40.4l-1-.23q.09-.29.15-.51a3.19,3.19,0,0,1,.1-.35q3.22.75,6.44,1.54c.07.19.12.36.16.5s.06.31.1.49l-1-.26v9.14q7.17,1.77,14.28,3.77,6.07,1.73,12.11,3.6V44a5.72,5.72,0,0,0,.85-.6l4.4,1.41v5.88l-2.15-.7v9.14q7.35,2.36,14.62,5V54.92l-2.08-.75V34.57l2.08.74"/> <path class="cls-1" d="M289.82,38.83q-3.81-1.26-7.64-2.46c-.73-1-1.46-2-2.2-3V28.54l2.2-1.67c2.56.8,5.1,1.62,7.64,2.47Zm7.85-6.8V27.8q-9.36-3.32-18.84-6.2l-4.67,3.51v7.61q1.59,2.12,3.16,4.25l-3.16,2.38V48.9l-2.11-.61v4.29q4,1.14,7.93,2.35V42.22l2.2-1.56c2.56.79,5.1,1.62,7.64,2.46V53.79l-2.09-.69v4.29q5,1.63,9.94,3.38V56.49l-2.08-.74V31.3l2.08.73"/> <path class="cls-1" d="M282.28,30.27c.29-.21.57-.43.85-.65,1.47.46,2.94.93,4.4,1.41v4.6c-1.46-.48-2.93-1-4.4-1.41l-.85-1.14V30.27m-1,2.94c.49.66,1,1.33,1.45,2q3,.93,5.9,1.89V30.3c-2-.64-3.93-1.27-5.9-1.89l-1.45,1Z"/> <path class="cls-1" d="M72.55,90.43v1.43q-4.74.84-9.46,1.79V83.59l5-1v1.43l3.82-.7V76.16c-1.28.22-2.55.46-3.82.7v1.53c-1.66.31-3.31.63-5,1V69.19q4.72-.94,9.46-1.78v1.53l3.87-.67V62.5q-10.42,1.75-20.78,4v4.23l2-.43V94.77l-2,.43v4.29q10.35-2.25,20.78-4V89.76l-3.87.67"/> <path class="cls-1" d="M122,75.86l5-.29V77l3.86-.18v-7.2l-3.86.19v1.53c-1.67.08-3.35.18-5,.29V61.47q4.78-.3,9.58-.5V62.5c1.3-.06,2.6-.1,3.91-.15V56.58q-10.55.35-21.05,1.2V62l2-.16V86.3l-2,.16v4.29q10.52-.84,21.05-1.19V83.84c-1.31,0-2.61.09-3.91.15v1.43q-4.8.19-9.58.5V75.86"/> <path class="cls-1" d="M154,67.75l-.83.81c-1.41,0-2.81,0-4.21,0V63h4.21L154,64ZM148,62v7.7h5.67c.46-.48.92-1,1.37-1.46V63.47c-.45-.5-.91-1-1.37-1.49-1.89,0-3.78,0-5.67,0"/> <path class="cls-1" d="M156.22,68.8c-.7.73-1.41,1.47-2.11,2.22q-3.69,0-7.38,0V60.6q3.69,0,7.38,0c.7.79,1.41,1.58,2.11,2.38ZM139.05,56.48v4.24l2.06,0V85.12l-2.06,0v4.29c3.23-.08,6.46-.13,9.69-.13V85h-2V75.3c3.54,0,7.07,0,10.61,0,1.48-1.61,3-3.21,4.45-4.81V61.4c-1.48-1.67-3-3.33-4.45-5q-9.14-.15-18.29.07"/> <path class="cls-1" d="M170.64,76.74q1.92-6,3.85-12l3.81,12.38c-2.55-.16-5.11-.3-7.66-.42m8.88-15.17,2.49.17V57.51q-7.37-.54-14.75-.83v4.24l2.2.09-7.67,24.18-1.52,0v4.29c3.18.08,6.36.18,9.53.33V85.48l-1.9-.08q.9-2.85,1.81-5.69c3.19.14,6.38.31,9.57.53q.9,2.94,1.81,5.89l-2-.14v4.29q4.78.31,9.57.74V86.73l-1.47-.13q-3.85-12.54-7.71-25"/> <path class="cls-1" d="M175.13,74.52l-1.27-.07c.13-.4.23-.76.32-1.08a7.24,7.24,0,0,1,.31-.93c.13.45.26.87.37,1.25s.2.66.27.83m-1.64-2.46c-.31,1-.67,2.13-1.1,3.44,1.4.07,2.8.14,4.2.23-.19-.66-.37-1.22-.53-1.67s-.32-.91-.47-1.38-.3-1-.46-1.56-.37-1.28-.64-2.15c-.35,1.07-.69,2.1-1,3.09"/> <path class="cls-1" d="M252.61,72.64l2.06.49V68.89q-4-1-7.95-1.85Q240.36,77,234,87.2V68.62L236,69V64.78c-3.28-.64-6.56-1.26-9.85-1.83v4.24l2.08.36V92l-2.08-.37v4.29c2.74.47,5.48,1,8.21,1.51q6.28-9.93,12.56-19.68v18l-2.07-.46v4.29q4.91,1.08,9.78,2.26V97.58l-2.06-.49Z"/> <path class="cls-1" d="M268,80l.8-.69L273,80.46v4.6c-1.39-.41-2.78-.8-4.18-1.19l-.8-1.09Zm6,6.5V79.68c-1.87-.54-3.73-1.08-5.6-1.59L267,79.19V83l1.38,1.91c1.87.52,3.73,1.06,5.6,1.6"/> <path class="cls-1" d="M265.84,78.35l2.09-1.77q3.65,1,7.26,2.07v9.49q-3.62-1.06-7.26-2.07l-2.09-2.87V78.35m-5.53,11.1V99l-2-.51v4.29c2.52.64,5,1.29,7.54,2V92l2.09-1.67q3.65,1,7.26,2.07V103.1l-2-.58v4.29q4.74,1.36,9.46,2.85v-4.29l-2-.61V80.31l2,.61V76.69q-8.91-2.81-17.92-5.22c-1.47,1.24-2.95,2.48-4.43,3.74v7.6l3,4.1-3,2.54"/> <path class="cls-1" d="M283.89,75.75v6.94l-2-.62v21.74l2,.62v6.95q-5.94-1.89-11.92-3.6v-6.94l2,.59v-8c-1.87-.54-3.73-1.07-5.6-1.59q-.48.38-.72.54t-.66.51v13.52q-5-1.35-10-2.6v-7l2.05.52V88.63l2.53-2.15c-.84-1.16-1.68-2.31-2.53-3.46V74.34q2.58-2.18,5.16-4.32,9.86,2.63,19.62,5.73m-28,27.75q-6.12-1.5-12.27-2.84V93.72l2.07.45V82.28q-5.28,8.25-10.59,16.63c-3.36-.66-6.74-1.28-10.11-1.86V90.11l2,.35V68.71l-2.08-.36V61.41q6.19,1.05,12.36,2.3v6.94l-2.07-.41v12.3q5.42-8.55,10.82-17,5,1.09,9.87,2.31v6.94l-2-.5V96.06l2,.5Zm-32-4.44c-2.62-.44-5.12-.84-7.74-1.24V95.63c-.32,0-7-1-10.07-1.42-.7-.09-10.58-1.24-14.83-1.64V85.63l2,.19V64.08l-2-.19v-7q6,.57,11.93,1.28v6.94l-2-.23V86.67c1.52.18,7.94,1,9.46,1.21V66.13l-2-.27V58.92q6,.8,11.89,1.75v6.94l-2-.31V89l5.35.88v9.14M190,92.46q-6-.55-12.1-.93V84.59l1.47.09c-.16-.52-.33-1-.49-1.49s-.34-1-.54-1.69c-2.55-.16-5.11-.3-7.66-.42-.17.57-.31,1-.44,1.4s-.31.93-.54,1.67l1.42.06c0,2.31,0,4.63,0,6.94q-6-.29-12.08-.41V83.8l1.91,0c.59-1.89,1.16-3.71,1.74-5.46s1.13-3.51,1.68-5.26,1.11-3.51,1.66-5.28,1.14-3.61,1.76-5.52L166,62.25V55.31q8.63.31,17.24,1v6.94l-2-.14q1.76,5.73,3.42,11.1t3.46,11.18l1.85.17Zm-26.9-21.37c-1.74,1.85-3.49,3.72-5.23,5.59q-4.94-.09-9.88-.06v7.09h2v6.94q-6.08,0-12.13.17V83.88l2.06-.06V62.08l-2.06.05V55.19q10-.28,20-.1c1.74,1.92,3.49,3.85,5.23,5.79Zm-26.4,19.76q-11.72.36-23.39,1.33v-7l2-.16V63.33l-2,.16V56.55q11.69-1,23.39-1.33v8.42c-2.09.07-4.17.14-6.26.24V62.4c-2.39.1-4.78.23-7.18.37v7.46l2.59-.15V68.55q3.15-.18,6.3-.3v9.9q-3.15.12-6.3.3V77l-2.59.15v7.4c2.4-.15,4.79-.27,7.18-.38V82.71c2.09-.09,4.17-.17,6.26-.23Zm-24.46.72v2.9q-3.81.33-7.61.72V93l-.37,0c-1.79.18-3.58.38-5.37.59q-3.39.39-6.76.84c-1.75.23-3.49.47-5.24.72l-.59.09v2.2c-2.55.37-5.11.76-7.66,1.18V89.51L81.77,89h0l.13,0q1.8-6,3.44-11.42t3.4-11.34l-2,.28V59.56q8.56-1.23,17.16-2.13v6.94l-1.75.18c.61,1.88,1.2,3.68,1.75,5.41s1.1,3.45,1.65,5.16l1.68,5.14q.86,2.58,1.73,5.35l.34,0h0l2.89-.26v6.24M54.49,94.13l2-.43V72l-2,.43v-7Q66,62.91,77.58,61V69.4c-2.06.35-4.13.7-6.19,1.07V69q-3.56.65-7.09,1.34v7.46l2.55-.5V75.76q3.12-.6,6.23-1.15v9.91c-2.07.36-4.15.75-6.23,1.14V84.18l-2.55.5v7.4c2.36-.47,4.72-.91,7.09-1.34V89.31c2.06-.37,4.13-.73,6.19-1.07v.32h0v8.06Q66,98.54,54.49,101.07ZM53.38,81.56q-2.57,3.43-5.13,6.9-4.83,1.14-9.66,2.4V98l2-.5v6.94q-2.74.7-5.49,1.44l-2.52.68-3.8,1.07v-7l2-.55V93c-3.2.89-6.39,1.83-9.57,2.79l-5.06-4.14V81.43q2.52-3.63,5.06-7.24,5.68-1.72,11.42-3.31l2.52-.68q6.57-1.77,13.19-3.33c1.71,1.48,3.42,3,5.13,4.48Zm76,.08v1.48c-1.73.08-3.45.17-5.18.27V78.18l.64,0v1.42q4.14-.22,8.3-.39V67.08q-4.15.17-8.3.4V69l-.64,0V63.79l5.18-.28v1.54c2.77-.13,5.54-.24,8.31-.31V63.21l1.17,0V82.78l-1.17,0V81.33c-2.77.07-5.54.18-8.31.31m128.68-8v9.65c.71.94,1.41,1.89,2.11,2.83l-2.11,1.77V96l-1.14-.28h0l-.43-.11-.43-.11h0l-1.2-.3V75.63l2.06.51V67q-5.72-1.43-11.45-2.69-4.62,7.17-9.24,14.45V71.51l2.07.42V62.79q-7.2-1.47-14.43-2.69v9.14l2.08.36V89.2c-.31-.06-4.59-.82-6.41-1.11V68.53l2,.32V59.71q-6.95-1.14-13.92-2.05V66.8l2,.26v19.6l-3.54-.46-3.88-.48V66.12l2,.24V57.22q-7-.86-14-1.49v9.13l2,.19v19.6l-3.31-.3q-.82-2.73-1.61-5.25c-.52-1.67-2.54-8.19-3.05-9.81s-1-3.31-1.53-5.05l1.61.13V55.23q-9.69-.75-19.39-1.08v9.14l1.37,0q-.89,2.83-1.64,5.2c-.21.65-.41,1.28-.61,1.92v-10q-2.88-3.26-5.77-6.48-10.29-.18-20.58.1h0l-.88,0h0q-12.3.36-24.57,1.41v9.14l2-.17v19.6c-.34,0-3.34.24-4.5.35-.55-1.74-1.06-3.35-1.55-4.84s-2.44-7.48-2.94-9-1-3.25-1.63-5.09l1.36-.14V56.19q-9.67,1-19.3,2.4v9.14l1.6-.23c-.52,1.77-1,3.49-1.53,5.15l-3,10Q82,85.22,81.14,88l-2.54.41V87q-4.12.67-8.22,1.42v1.48c-1.71.31-3.41.64-5.12,1V85.61l.63-.12v1.43q4.1-.8,8.21-1.51V73.31Q70,74,65.89,74.82v1.53l-.63.12V71.22c1.71-.34,3.41-.66,5.12-1v1.53q4.09-.75,8.22-1.42V59.69Q66,61.75,53.48,64.54v5.37l-4.8-4.27c-4.55,1.07-9.1,2.22-13.62,3.43l-2.52.69Q26.6,71.39,20.69,73.2q-2.79,4-5.57,8.07V92.45C17,94,18.83,95.49,20.69,97q4.51-1.38,9-2.66v4.9l-2,.57V109l4.79-1.34c.84-.23,6.85-1.83,9-2.38V96.12l-2,.51v-4.9q4.56-1.17,9.13-2.25,2.84-3.83,5.66-7.62V73.49l1.11-.24v19.6l-2,.43v9.14q12-2.67,24.08-4.68v2.2q4.83-.8,9.67-1.49V96.24c2-.28,3.92-.54,5.88-.8,1.57-.2,3.14-.4,4.71-.58q2.9-.35,5.8-.65v2.2c3.19-.33,6.4-.63,9.6-.9v-2.2q12-1,24-1.35c4.59-.13,9.18-.2,13.77-.18V82.64h-2v-4.9c3.11,0,6.23,0,9.34.07l5.19-5.56-.3.93-1.47,4.58q-.74,2.31-1.56,5l-2.15,0v9.14q7.07.12,14.12.48V83.19l-1,0c.07-.2.22-.81.25-.91,2.07.1,4.13.22,6.2.35.07.17.21.76.25.93l-1-.06v9.14q6.89.42,13.75,1c5.16.47,15.47,1.67,15.47,1.65l3.88.52c1.74.24,3.48.48,5.22.74V98.8c3.29.49,6.57,1,9.85,1.58v-2.2q5.36.91,10.69,2,4.49-7.08,9-14.07v6.79l-2.07-.45v9.14q7,1.5,14,3.22,5.76,1.43,11.49,3V93.65a5.67,5.67,0,0,0,.8-.64L273,94.19v5.88l-2-.59v9.14q7,2,13.91,4.2v-9.14l-2-.63V83.45l2,.63V74.94q-10.45-3.34-21-6.16l-5.78,4.83"/> <path class="cls-1" d="M24.85,82l.81-1.15q2-.6,4.08-1.17v5.51q-2,.57-4.08,1.17l-.81-.58Zm-1,4.54,1.33,1.08c1.83-.53,3.66-1.06,5.5-1.57V78.34q-2.76.76-5.5,1.58c-.45.62-.89,1.24-1.33,1.87Z"/> <path class="cls-1" d="M44.47,80.49l-.81,1c-1.37.33-2.74.68-4.11,1V77l4.11-1,.81.72ZM38.59,76.2v7.71c1.85-.48,3.7-.94,5.54-1.4l1.34-1.81V76L44.13,74.8l-5.54,1.4"/> <path class="cls-1" d="M46.67,81l-2.06,2.74c-2.4.59-4.81,1.2-7.21,1.83V75.14c2.4-.63,4.81-1.24,7.21-1.83l2.06,1.85ZM31.88,87c-2.39.66-4.78,1.35-7.17,2l-2-1.64V81.63l2-2.95q3.59-1.07,7.17-2.05Zm3.18-15.52-2.52.69q-5.49,1.52-10.95,3.16-2.16,3.1-4.3,6.23v9.14l4.3,3.57q5.13-1.55,10.29-3v9.75l-1.95.54v4.29l2.61-.72,2.52-.69,4.3-1.13V99.08l-2,.51V89.84q5.18-1.36,10.37-2.59c1.45-2,2.91-4,4.36-5.92V72.2c-1.45-1.31-2.91-2.6-4.36-3.89q-6.37,1.51-12.71,3.21"/> <path class="cls-1" d="M100.11,87.85q-4.65.53-9.28,1.16l-2,.26,1.8-6c.32-1.05.65-2.1,1-3.14q1.91-6.33,3.79-12.64l3.84,11.69.93,2.9,1.8,5.57-1.9.21m.34-24.49,2.19-.24V58.89q-7.35.78-14.68,1.82V65l2.48-.34Q86.6,77.35,82.77,90.17l-2.89.45h0l-.14,0v6.49q2.66-.44,5.31-.82v-2.2c1.84-.28,3.69-.54,5.53-.79l.25,0q4.64-.63,9.28-1.15l.15,0q2.77-.31,5.55-.59v2.2c1.74-.18,3.48-.34,5.22-.49V86.76h-.1L108.1,87q-3.82-11.86-7.65-23.66"/> <path class="cls-1" d="M97.83,85.72l-4.72.58-1,.13c0-.17.06-.33.09-.47s.09-.3.15-.48l2.43-8.22c.07-.18.16-.46.27-.85l.36-1.27a5.66,5.66,0,0,1,.32.9c.08.32.19.67.31,1.06.83,2.54,1.66,5.07,2.48,7.62a1.92,1.92,0,0,1,.1.37c0,.15.08.32.15.52l-1,.11m1.45-2.21q-.87-2.73-1.75-5.46c-.42-1.28-.78-2.4-1.09-3.37s-.64-2-1-3c-.26.89-.47,1.62-.63,2.2s-.31,1.11-.46,1.59-.3,1-.46,1.41-.34,1-.54,1.71q-.84,2.94-1.7,5.88c-.19.68-.37,1.25-.53,1.73s-.33,1-.49,1.52l1.46-.19q3.38-.45,6.76-.84l1.41-.16q-.35-1.08-.54-1.62c-.13-.36-.27-.82-.44-1.38"/> <path class="cls-1" d="M222.78,91.06c-1.82-.31-3.65-.6-5.47-.88V65.73l2,.31V61.8c-3.15-.5-6.31-1-9.46-1.39v4.23l2,.28V89.37c-1.92-.27-3.85-.53-5.77-.77l-.33,0q-2.89-.37-5.78-.7V63.41l2,.23V59.4c-3.16-.37-6.33-.71-9.49-1v4.23l2,.2V87.27l-2-.2v4.29q6.65.65,13.28,1.48l.33,0c1.29.17,8.82,1.22,11.28,1.6v2.2q2.74.42,5.49.88V91.07h-.05Z"/> <polygon class="cls-1" points="8.76 264.09 5.17 267.68 5.17 282.98 8.76 286.57 18.67 286.57 22.26 282.98 22.26 278.1 16.08 278.1 16.08 280.8 15.38 281.5 12.08 281.5 11.35 280.8 11.35 269.87 12.08 269.14 15.38 269.14 16.08 269.87 16.08 272.73 22.26 272.73 22.26 267.68 18.67 264.09 8.76 264.09"/> <path class="cls-1" d="M33.78,276.18l1.43-3.56,1.43,3.56Zm6.37-7h1.14v-5.05h-12v5.05h1L25.36,281.5H24v5.07h8.61V281.5h-.73l.35-1h6l.32,1H37.8v5.07h8.64V281.5H45.09Z"/> <polygon class="cls-1" points="58.26 269.14 59.61 269.14 59.61 272.21 55.21 272.21 55.21 269.14 56.56 269.14 56.56 264.09 47.68 264.09 47.68 269.14 49.03 269.14 49.03 281.5 47.68 281.5 47.68 286.57 56.56 286.57 56.56 281.5 55.21 281.5 55.21 277.75 59.61 277.75 59.61 281.5 58.26 281.5 58.26 286.57 67.14 286.57 67.14 281.5 65.79 281.5 65.79 269.14 67.14 269.14 67.14 264.09 58.26 264.09 58.26 269.14"/> <polygon class="cls-1" points="78.91 269.14 79.5 269.14 76.29 272.32 76.29 269.14 77.64 269.14 77.64 264.09 68.76 264.09 68.76 269.14 70.11 269.14 70.11 281.5 68.76 281.5 68.76 286.57 77.64 286.57 77.64 281.5 76.29 281.5 76.29 280.42 77.34 279.34 79.53 281.5 78.91 281.5 78.91 286.57 89.6 286.57 89.6 281.5 87.9 281.5 81.64 275.24 87.73 269.14 89.6 269.14 89.6 264.09 78.91 264.09 78.91 269.14"/> <polygon class="cls-1" points="90.76 270.49 95.83 270.49 95.83 269.14 97.18 269.14 97.18 281.5 95.83 281.5 95.83 286.57 104.71 286.57 104.71 281.5 103.36 281.5 103.36 269.14 104.71 269.14 104.71 270.49 109.76 270.49 109.76 264.09 90.76 264.09 90.76 270.49"/> <rect class="cls-1" x="111" y="272.78" width="8.88" height="5.07"/> <polygon class="cls-1" points="121.58 264.09 121.58 269.14 122.93 269.14 122.93 281.5 121.58 281.5 121.58 286.57 130.46 286.57 130.46 281.5 129.11 281.5 129.11 269.14 133.51 269.14 133.51 281.5 132.16 281.5 132.16 286.57 141.04 286.57 141.04 281.5 139.69 281.5 139.69 269.14 141.04 269.14 141.04 264.09 121.58 264.09"/> <polygon class="cls-1" points="142.66 269.14 144.01 269.14 144.01 281.5 142.66 281.5 142.66 286.57 159.2 286.57 159.2 280.61 154.13 280.61 154.13 281.5 150.19 281.5 150.19 277.86 151.11 277.86 151.11 278.75 156.15 278.75 156.15 271.92 151.11 271.92 151.11 272.81 150.19 272.81 150.19 269.14 154.13 269.14 154.13 270.03 159.2 270.03 159.2 264.09 142.66 264.09 142.66 269.14"/> <polygon class="cls-1" points="160.82 270.49 165.9 270.49 165.9 269.14 167.25 269.14 167.25 281.5 165.9 281.5 165.9 286.57 174.78 286.57 174.78 281.5 173.43 281.5 173.43 269.14 174.78 269.14 174.78 270.49 179.82 270.49 179.82 264.09 160.82 264.09 160.82 270.49"/> <polygon class="cls-1" points="181.07 269.14 182.41 269.14 182.41 281.5 181.07 281.5 181.07 286.57 197.61 286.57 197.61 280.61 192.54 280.61 192.54 281.5 188.6 281.5 188.6 277.86 189.51 277.86 189.51 278.75 194.56 278.75 194.56 271.92 189.51 271.92 189.51 272.81 188.6 272.81 188.6 269.14 192.54 269.14 192.54 270.03 197.61 270.03 197.61 264.09 181.07 264.09 181.07 269.14"/> <path class="cls-1" d="M210.57,272.27l-.73.73h-3.08v-3.86h3.08l.73.73Zm-11.34-8.18v5.05h1.35V281.5h-1.35v5.07h8.88V281.5h-1.35V278h6.4l3.59-3.59v-6.77l-3.59-3.59Z"/> <polygon class="cls-1" points="249.19 264.09 249.19 269.14 250.54 269.14 250.54 272.84 246.55 272.84 245.82 272.14 245.82 269.14 247.17 269.14 247.17 264.09 238.29 264.09 238.29 269.14 239.64 269.14 239.64 274.32 243.23 277.91 250.54 277.91 250.54 280.8 249.81 281.5 246.56 281.5 245.83 280.8 245.83 279.91 239.65 279.91 239.65 282.98 243.24 286.57 253.13 286.57 256.72 282.98 256.72 274.32 256.72 269.14 258.07 269.14 258.07 264.09 249.87 264.09 249.19 264.09"/> <path class="cls-1" d="M270.35,272.27l-.73.73h-3.08v-3.86h3.08l.73.73ZM259,264.09v5.05h1.35V281.5H259v5.07h8.88V281.5h-1.35V278h6.4l3.59-3.59v-6.77l-3.59-3.59Z"/> <polygon class="cls-1" points="294.83 270.03 294.83 264.09 278.28 264.09 278.28 269.14 279.63 269.14 279.63 281.5 278.28 281.5 278.28 286.57 288.4 286.57 288.4 281.5 285.81 281.5 285.81 269.14 289.75 269.14 289.75 270.03 294.83 270.03"/> <path class="cls-1" d="M229.84,280.8l-.73.7H226v-4.05h3.08l.73.73Zm1.76-8.4H226v-3.26H230V270H235v-5.94H218.5v5.05h1.35V281.5H218.5v5.07h13.93L236,283V276.4Z"/> <path class="cls-1" d="M86.17,185.4H77.6L76.19,187V217.8l.62.62c.23.23.5.53.79.88h8.57c.23-.23.47-.46.7-.66a8.38,8.38,0,0,0,.8-.84V187Zm3.35.7v32.58c-.59.59-1,1-1.32,1.28a15.34,15.34,0,0,0-1.15,1.19H76.81a15.1,15.1,0,0,0-1.28-1.28,11,11,0,0,1-1.19-1.19V186.1l2.47-2.56H87.05Zm-1.59-4.94h-12l-3.8,4.06v34.35l3.8,3.88h12l3.8-3.88V185.22ZM70.1,173.83H93.76l8.12,8.48v40.08l-8.12,8.48H70.1l-8-8.48V182.31Zm-10.24,7.51v42l9.36,9.8H94.64l9.36-9.8v-42l-9.36-9.8H69.22Zm8.56-11.75h27l10.42,10.95v43.62L95.44,235.1h-27L58,224.16V180.54Z"/> <path class="cls-1" d="M136.84,223.45v7.42h-18v-7.42h3.8V181.16h-3.8v-7.33h18v7.33h-3.79v21.37l21-21.37h-6.62v-7.33h23v7.33h-3.79l-20.84,21.19,20.84,21.1h3.79v7.42h-23v-7.42h6.8l-14.75-14.74-6.44,6.53v8.21Zm-1.5-2.3v-4.94l4.15-4.24c1.71,1.71,3.31,3.28,4.82,4.73s3,2.92,4.45,4.45h-3.62v12h27.64v-12h-5.12L149,202.35l18.63-18.81h5.12v-12H145.14v12h3.45L135.34,197V183.54h3.8v-12h-22.6v12h3.79v37.61h-3.79v12h22.6v-12Zm1.86-1.85H141v15.8H114.68V219.3h3.8V185.4h-3.8V169.59H141V185.4H137.2v6.88l6.8-6.88h-.8V169.59h31.52V185.4h-6.27l-16.68,16.95,16.68,17h6.27v15.8H143.2V219.3h.8l-4.51-4.59L137.2,217Z"/> <path class="cls-1" d="M217.28,191.4v-6.18l-3.8-4.06h-12l-3.79,4.06v34.35l3.79,3.88h12l3.8-3.88v-5.74h10.15v8.56l-8.12,8.48H195.64l-8-8.48V182.31l8-8.48h23.67l8.12,8.48v9.09Zm12.27,2.3V181.34l-9.36-9.8H194.76l-9.36,9.8v42l9.36,9.8h25.43l9.36-9.8V211.53H215.07v7.15c-.59.59-1,1-1.33,1.28s-.67.66-1.14,1.19H202.35a13.74,13.74,0,0,0-1.28-1.28,11,11,0,0,1-1.19-1.19V186.1l2.47-2.56H212.6l2.47,2.56v7.6Zm-16.34,1.94V187l-1.5-1.59h-8.56L201.74,187V217.8l.61.62c.24.23.5.53.8.88h8.56c.24-.23.47-.45.71-.66a8.43,8.43,0,0,0,.79-.84v-8.21H231.4v14.57L221,235.1H194l-10.42-10.94V180.54L194,169.59h27l10.42,10.95v15.1Z"/> <path class="cls-1" d="M271.22,204c-.12-.3-.28-.77-.49-1.42l-.66-2.11a9.55,9.55,0,0,0-.57,1.63c-.15.56-.34,1.19-.58,1.9Zm-5,1.94c.77-2.3,1.43-4.31,2-6.05s1.16-3.54,1.81-5.43c.47,1.47.85,2.69,1.15,3.67s.57,1.85.84,2.64.54,1.58.84,2.34.61,1.71,1,2.83ZM277,208.26l-6.89-21-7,21Zm6.71-27.1h-4.51l13.95,42.29h2.65v7.42h-17.3v-7.42H282l-3.27-10h-17.3l-3.27,10h3.44v7.42H244.38v-7.42h2.74L261,181.16h-4v-7.33h26.67Zm2.2-9.62H254.71v12h3.18q-1.68,5-3.18,9.67t-3,9.23q-1.5,4.59-3.05,9.18t-3.13,9.53h-3.45v12h21.81v-12h-2.56c.41-1.29.74-2.26,1-2.91s.5-1.47.8-2.47H277c.35,1.12.67,2.07,1,2.87s.59,1.63.88,2.51h-2.65v12h21.9v-12H294.7q-3.27-9.79-6.27-18.84t-6.18-18.77h3.62Zm1.95,13.86H284.9q1.41,4.41,2.78,8.52c.92,2.74,1.83,5.47,2.74,8.21s1.84,5.52,2.78,8.34,1.91,5.77,2.92,8.83H300v15.8H274.31V219.3h1.76c-.06-.29-.11-.56-.17-.79a6.29,6.29,0,0,0-.27-.8H264.42q-.09.27-.18.66a8.54,8.54,0,0,1-.26.93h1.76v15.8H240.23V219.3h3.88c1-3.12,1.95-6,2.83-8.7s1.77-5.34,2.65-8,1.78-5.35,2.69-8.12,1.9-5.79,3-9.09h-2.47V169.6h35Z"/> <path class="cls-1" d="M35.05,219.48l-3.8,4.06H17.92v-18H31.25l3.8,3.88ZM17.92,198.11v-17H35v2.65H42v-10H4v7.33h3.8v42.38H4.06v7.33h33l8-8.48v-15.8l-8-8.48Z"/> <path class="cls-1" d="M1.85,171.54H44.14V186.1H32.84v-2.56H20.13v12.28H38l9.45,9.88v17.66L38,233.16H1.85v-12H5.56V183.54H1.85ZM0,169.59V185.4H3.71v33.9H0v15.8H38.76l10.42-10.94V204.82L38.76,193.87H21.9V185.4H31v2.65H46V169.59Z"/> <path class="cls-1" d="M31,217.71l-1.5,1.59H21.9v-9.54h7.59l1.5,1.42Zm-10.86-9.89v13.33H30.37l2.47-2.56v-8.21l-2.47-2.56Z"/> </svg>