<svg xmlns="http://www.w3.org/2000/svg" xmlns:xlink="http://www.w3.org/1999/xlink" id="Слой_1" x="0px" y="0px" viewBox="0 0 1108.1 255.1" style="enable-background:new 0 0 1108.1 255.1;" xml:space="preserve"> <style type="text/css"> .st0{fill:#FFFFFF;} </style> <title>Монтажная область 4</title> <path id="_Контур_" class="st0" d="M617.8,178.1l0.1,0.1c1,1,2.1,1.9,3.2,2.7c3.9,2.8,8.5,4.6,13.3,5.3 c1.7,0.2,3.4,0.4,5.1,0.4c3.5,0,7-0.4,10.4-1.2c7.4-1.7,15.6-5.1,24.8-10.4c2.3,3.2,5.3,5.8,8.8,7.6c4,2.1,8.5,3.2,13,3.1 c3.1,0,6.2-0.4,9.2-1.3c8-2.1,15.2-7.7,21.8-17c0.3,0.7,0.6,1.3,0.9,2c4,8.1,11.8,13.7,20.8,14.9c1.1,0.1,2.3,0.2,3.4,0.2 c6,0,13.7-1.9,21.9-8.9c2.2,2.9,5.1,5.3,8.3,7c4,2.1,8.5,3.2,13,3.1c3.1,0,6.2-0.4,9.2-1.3c8.5-2.3,16-8.4,23-18.9 c5.7,12.1,17,19.2,29.7,19.2c3.4,0,6.7-0.5,9.9-1.4c7.6-2.2,14.7-6.6,21.3-13.1c-4-7.3-5.8-17.6-5.4-31c-0.3,0.6-0.7,1.1-1,1.7 c-6.8,11-14.3,17.9-21.4,20c-2.6,0.9-5.3,0.7-7.8-0.5c-2.4-1.4-4.2-3.7-5-6.4c-4.1-12.1-0.2-28.5,3.2-43c0.5-2.2,1.1-4.5,1.6-6.8 c0.8-3.8,1.7-7.5,2.6-11c0.8-2.8,1.5-5.5,2.3-8.2c1.5-5.5,3-10.8,4.3-15.5c1.9-6.1-1.6-12.6-7.8-14.5c-6.1-1.9-12.6,1.6-14.5,7.8 c-2.4,7.7-4.7,15.8-6.8,24.5c-4.4,16-9.4,33-15.4,47.3c-9.7,23.2-16.9,26.8-18.9,27.3c-4.7,1.3-5.8-0.3-6.2-0.8 c-1.1-1.7-1.4-3.9-0.8-5.9c5.7-2.9,8-9.9,5-15.7s-9.9-8-15.7-5l0,0c-5,2.5-8.9,6.7-10.9,11.9c0,0,0,0.1,0,0.1 c-1.1,2.8-1.7,5.8-2,8.8c-0.4,4.2,0.3,8.5,2.1,12.4c0.1,0.4,0,0.8-0.3,1c-0.4,0.2-0.8,0.1-1.1-0.2c-0.8-1.1-3.2-4.4-3.7-13 c0-1.4,0-2.7,0.2-4.1c-0.5,0.4-0.9,0.9-1.3,1.4c-5.4,6.4-9.8,8.4-12.2,8.1c-1.2-0.2-2.2-0.9-2.8-2c-0.5-1.1-2.3-5.8-1.3-18.6 c0.9-10.4,2.5-20.8,4.8-30.9c1.2-5.8,2.5-11.3,3.8-16.4c0.8-2.8,1.5-5.5,2.3-8.2c1.5-5.5,3-10.8,4.3-15.5c1.7-6.2-1.9-12.6-8.1-14.3 c-6-1.6-12.2,1.7-14.1,7.6c-0.2,0.6-3.3,10.7-6.9,24.6c-4.4,16-9.4,33-15.4,47.2c-9.7,23.2-16.9,26.8-18.9,27.3 c-4.7,1.3-5.8-0.3-6.2-0.8c-1.1-1.7-1.4-3.9-0.8-5.9c5.6-3,7.8-10.1,4.7-15.7c-3-5.5-9.8-7.7-15.4-4.9c-6,2.9-10.2,8.3-12,15.4 l-0.2,0.7l0,0c-0.4,1.6-0.6,3.2-0.8,4.8c-0.4,4.2,0.3,8.5,2.1,12.4c0.2,0.4,0,0.8-0.3,1c-0.1,0.1-0.3,0.1-0.4,0.1 c-0.3,0-0.5-0.1-0.7-0.3c-0.8-1.1-3.2-4.4-3.7-13c-0.1-0.9-0.1-1.8,0-2.7c-8.3,5-15.4,8.2-21.2,9.6c-3.2,0.7-7.5,1.2-10-0.6 c-1.8-1.3-3.3-4.2-4.2-8.2c-1.7-4.6-2-11.2-0.8-19.7c1-6.9,2.5-13.7,4.6-20.3c0.1-0.2,0.1-0.3,0.2-0.4c2.2-6.5,5-12.8,8.4-18.8 c2.7-4.4,6.9-11,12.3-14.4c2.2-1.4,4.7-2.1,7.3-2.1c1.4,0,2.7,0.2,4,0.8c1.8,0.8,3.1,2.3,3.7,4.1c1.9,5.9-0.1,12.2-13.9,22.1 c-6.3,4.4-12.9,8.4-19.7,11.9c-1.7,5.8-3,11.8-3.9,17.8c-0.5,3.7-0.8,7.4-0.6,11.1l0.6-0.3l0.8-0.4c3-1.6,6-3.3,9-4.9 c9.1-4.9,18.5-9.9,27.3-16.2c5.7-4,12.8-9.7,17.9-17.3c2.8-4.1,4.7-8.7,5.7-13.5c1-5.4,0.8-11-0.7-16.3c-2.3-9-8.9-16.4-17.6-19.7 c-10.7-3.9-22.5-2.7-32.2,3.3c-9.7,6.1-16.1,15.9-20,22.6c-5.2,9.1-9.3,18.9-12.1,29c-1.2,4.3-2.2,8.7-2.9,13.2 c0,0.2-0.1,0.4-0.1,0.9c0,0.2,0,0.3-0.1,0.5c-0.4,2.9-0.8,6.1-1.1,9.4l0,0c-0.3,3.8-0.3,7.7,0,11.5 C607.3,160.3,611.1,170.6,617.8,178.1z"/> <path id="_Контур_2" class="st0" d="M1098.8,194.2c-1.9-1.4-4.2-2.1-6.6-1.9h-0.1c-0.9,0.1-1.8,0.3-2.7,0.7h-0.1 c-0.9,0.4-1.7,0.9-2.3,1.6c-0.7,0.7-1.2,1.5-1.6,2.4c-0.7,1.7-1,3.5-0.8,5.3c0.1,1.3,0.4,2.6,0.8,3.9l0.6,1.4c0.2,0.4,0,0.9-0.4,1.1 c-0.4,0.1-0.8,0-1-0.3l-0.8-1.4c0,0,0-0.1,0-0.1c0-0.1-0.1-0.2-0.2-0.3c-1.6-3.3-1.9-7.1-0.8-10.6c0.2-0.5,0.4-1,0.6-1.4l0,0 c0.3-0.4,0.2-0.9-0.2-1.2c-0.2-0.1-0.4-0.2-0.7-0.1c-25.3,6.6-51.6,11.9-86.5,17.4c-92.5,14.7-189.6,15.4-288.7,2.1 c-24-3.2-139.7-16.7-201-18.9c-26.2-1-56.1,2.5-82.2,6.8c-1.2,6.5-2.9,15.6-4.5,24.3c26.9-4.7,58.8-8.9,85.9-7.9 c57.1,2.1,170.5,15,198.7,18.8c47.3,6.4,95,9.7,142.7,9.7c51.1,0.1,102.2-3.9,152.7-11.9c27-4.3,59.4-10,94.5-19.4 c6.2-1.7,9.9-8,8.2-14.2C1101.8,197.7,1100.5,195.7,1098.8,194.2z"/> <path id="_Контур_3" class="st0" d="M1103.1,120.5c-5.2-3.7-12.5-2.5-16.2,2.8c0,0,0,0,0,0c-7.6,10.8-22.7,29.7-37.9,35 c-4.9,1.7-9.8,1.6-12.8-0.3c-5.7-3.6-7.8-15.3-7.9-20.5c0.3-15.9,6.7-34.9,16.8-49.7c5.6-8.2,11.3-12.7,16-12.8h0.2 c2.2,0,4.4,1,5.9,2.7c2.6,3.7,2.1,6.4,0.1,13c-1.8,5.6-4.4,10.9-7.8,15.7c-0.2,0.3-0.2,0.6-0.2,0.8c0.1,0.3,0.4,0.5,0.7,0.5 c1,0,2,0.2,2.9,0.5c2.1,0.7,4.1,1.8,5.7,3.4c1,1,1.9,2.1,2.5,3.3l0.2,0.3c0,0,0,0.1,0,0.1c0.4,0.9,0.7,1.5,0.7,1.5 c0.2,0.4,0.1,0.9-0.3,1.1c-0.4,0.2-0.9,0.1-1.1-0.3c0,0-0.3-0.5-0.8-1.3c-0.8-1.1-1.7-2.1-2.7-2.9c-1.4-1.2-3.1-2-4.8-2.4 c-0.9-0.2-1.9-0.2-2.8-0.1c-0.9,0.2-1.8,0.5-2.6,1l0,0c-0.8,0.5-1.5,1.1-2.1,1.8l0,0c-0.9,1-1.6,2.2-1.9,3.5 c-1.3,6.3,2.7,12.5,8.9,13.8c4.3,0.9,8.7-0.6,11.4-4c7.7-9.5,13.4-19.7,16.4-29.6c2.3-7.4,6-19.7-3.2-33 c-5.8-7.9-15.1-12.6-24.9-12.6h-0.1c-6.5,0.1-12.8,2-18.3,5.6c-6,3.8-11.7,9.7-16.9,17.3c-6.4,9.5-11.5,19.8-15.1,30.7 c-0.3,1-0.7,2-1,3.1c-0.5,1.4-1,2.9-1.5,4.3c-1,2.8-1.9,5.6-2.9,8.5c-1.2,3.6-2.4,7.3-3.7,10.8c-1.1,3-2.2,6-3.5,8.9 c-1,2.4-2.1,4.8-3.3,7.1c-0.3,0.6-0.6,1.2-0.9,1.8c-4.3,8.1-7.4,10.1-8.5,10.6c-0.5,0.2-1.2,0.5-3.2-0.3c-0.5-0.2-2.5-2.9-3.2-11.2 c-0.6-8.2,0.3-19.1,2.6-32.6c0.8-4.7,1.8-9.4,2.8-13.9c3.5-11,6.6-22.5,9.1-34.2c1.3-6.3-2.7-12.4-8.9-13.8 c-5.8-1.2-11.6,2.1-13.5,7.8c-0.3,0.8-5,15.6-9.2,34.3c-4.1,13-9.3,25.6-15.6,37.8c-9.4,17.5-19.1,27.2-27,27.2 c-0.6,0-1.1-0.1-1.7-0.2c-2.9-0.4-5.4-2.2-6.7-4.8c-1.4-2.6-3.2-8.2-2.5-19.1l0,0c0.1-0.8,0.2-3,0.7-6.4c0.2-1.5,0.4-3.3,0.7-5.3 c1-6.9,3-18,6.4-31.4c0.5-2,1.2-3.1,2.1-3.5c0.5-0.2,1.2-0.2,1.7,0.1c0.9,0.4,1.1,1.4,0.8,2.7c-0.3,1.1-0.8,2.2-1.3,3.3 c-0.8,1.7-1.4,3.4-2,5.1c-2.3,7.4-4.1,15-5.5,22.6c0,0.1,0,0.2,0,0.3c0.1,0.7,0.7,1.1,1.4,1c0,0,0,0,0,0c0.4-0.1,0.8-0.4,0.9-0.7 c2.3-4.8,4.8-10.3,7.2-16c3.5-8,6.6-16.2,9.2-24.5c2.4-8.3,4.2-17.6-0.4-24.4c-3.1-4.5-8.4-6.8-13.8-6.2c-4.1,0.5-7.7,2.9-9.7,6.4 l-0.1,0.1c-0.7,0.9-1.3,1.9-1.8,2.9c-3.1,5.6-8.3,17.6-14.4,41.8c-0.8,3-1.5,6-2.1,8.8c0,0.1,0,0.1,0,0.2l0,0c-0.4,2-0.8,4-1.2,5.9 c-0.6,3.2-1,6.2-1.4,9.2c-0.3,3.4-0.5,6.7-0.5,9.7c-0.2,8.9,0.7,16.4,2.6,22.4c0.7,2.1,1.6,4.1,2.6,6c4.6,8.8,13.1,14.9,22.9,16.5 c2,0.4,4,0.6,6.1,0.6c7.1,0,16.2-2.3,25.7-10.6c4.6-4,8.7-8.6,12.2-13.6c0.6,2.5,1.4,5,2.4,7.4c3.7,8.1,9.2,11.9,13.2,13.6 c7.4,3.2,15,3.3,21.9,0.2c6.4-2.9,12-8.4,17.2-16.8c2.8,5.1,6.8,9.4,11.6,12.6c5.1,3.1,10.9,4.9,16.8,5.1c0.6,0,1.1,0,1.6,0 c4.9,0,9.7-0.9,14.4-2.5c7.2-2.5,14.7-6.9,22.1-13.1c9.1-7.5,18.2-17.8,27.1-30.4C1109.7,131.4,1108.4,124.2,1103.1,120.5 C1103.1,120.5,1103.1,120.5,1103.1,120.5z"/> <path id="_Составной_контур_" class="st0" d="M376.8,203.6c-1.8-7.8-7.2-13.8-15.1-16.7c-0.3-0.1-0.6-0.2-0.9-0.3 c-3.1-0.8-6.4-1.2-9.6-1c-8.1,0.4-14.7,4.3-18.5,10.8s-4.4,14.9-1.5,22.7c0.3,0.7,0.5,1.4,0.9,2.1c2.5-0.2,5-0.7,7.4-1.5 c4.6-1.7,8.9-4.1,12.7-7.2c-1.3-1.3-1.9-3.1-1.7-4.9c0.2-1,0.8-1.9,1.8-2.3c0.9-0.4,1.9-0.4,2.7,0c0.9,0.4,2.7,1.8,1.2,5.3 c-0.6,1.2-1.4,2.3-2.4,3.2v0.1l0,0c0,0,0,0-0.1,0.1l-0.1,0.1l-0.1,0.1c-5.3,5.2-11.9,9-19.1,11l0,0c-6.6,1.7-13.5,1.8-20.1,0.3 c-9.2-2.2-17.6-7-24.3-13.7c-8.3-8.2-14.6-19.1-18.7-32.4c-6.8-21.8-5.9-46.7-2.5-68.7c0.1-1.3,0.4-2.9,0.7-4.5l-0.1,0.1l0.1-0.3 c-0.1,0.2-0.1,0.3-0.1,0.3s0.1-0.6,0.4-1.6c1.8-8.2,5.1-18.8,5.9-21.6c3.6-12.3,8-25.8,10.9-29.9c0.3-0.6,1.1-0.9,1.8-0.7l0.1,0.1 c0.7,0.3,0.6,1,0.6,1.6c-0.7,4.8-5.4,17.4-10.1,29c0,0.1,0,0.2,0,0.3c0,0.8,0.7,1.4,1.4,1.4c0.4,0,0.8-0.2,1.1-0.5 c2.5-4.6,5.4-9.8,8.3-15.2c16.2-30.2,19.6-39.7,20.9-44.2c1-3.4,1.2-6.9,0.5-10.4c-0.9-4.5-3.5-8.4-7.3-11c-4.2-3-9.5-4.1-14.5-3 c-5.5,1.2-10.3,4.6-13.2,9.5c-4.5,7.6-16.7,34-25.3,67c-1.9,7.3-3.5,14.5-4.9,21.6c-8,14.5-18.3,28.8-27.6,41.3 c-0.3-3.8-0.7-7.5-1-11.3c-0.4-4.5-0.9-9.1-1.3-13.7c-0.4-4.2-0.7-8.5-1-13.2c-0.4-5.6-0.8-11.5-1.1-17.7c-0.1-0.5-0.2-1.8-0.3-6.4 c-0.2-4.4-0.3-9.6-0.4-14.2c-0.1-9.6-0.1-21.5,0.8-23.7c0.2-0.6,0.8-0.9,1.4-0.9c0.5,0.1,0.9,0.4,1,0.9c0.7,2.6,0.2,14.6-0.5,25.3 c0,0.6,0.5,1,1,1c0.1,0,0.1,0,0.2,0c0.3-0.1,0.5-0.3,0.6-0.6c2.3-10.6,4-21.2,5.1-32c0-0.2,0-0.4,0-0.6c0.3-4.1,1-11.8-3.6-18.1 c-3.2-4.3-8.3-6.9-13.8-6.8c-5.2,0-10.1,2.6-13,6.9c-4.8,7.1-4.9,17.7-4.9,20.8c0.1,5.4,0.3,11.1,0.4,16.9 c0.3,8.2,0.6,16.2,0.9,23.9c0.1,1.1,0.1,2.1,0.1,3.2c-3.2,11.8-7.1,23.4-11.8,34.7c-9.8,23.3-21.9,41.8-36.1,55.1 c-7.7,7.3-16.7,13.3-26.4,17.6c-10.6,4.5-22,7-33.5,7.2c-12.9,0.3-24.8-2.6-34.3-8.5c-9.8-5.9-17.1-15.4-20.2-26.4 c-3.1-10.2-3.2-21-0.4-31.3c2.9-10.3,8.6-18.8,16.5-24.5c7.3-5.1,15.8-8.2,24.6-9c9.1-0.9,17.8,0.8,24.5,4.7 c9.2,5.4,14.2,14.5,13.7,25c-0.3,5.2-1.9,10.2-4.7,14.5c-1.8,2.8-4.1,5.3-6.8,7.2c-0.2,0.1-0.3,0.3-0.4,0.5c0,0.2,0.1,0.5,0.2,0.6 l0,0l0,0c1.5,1.7,2.5,3.8,2.9,6.1c0.3,1.7,0.2,3.5-0.3,5.1c-0.2,0.6-0.4,1.2-0.6,1.8c-0.1,0.3-0.4,0.5-0.7,0.5c-0.1,0-0.2,0-0.3-0.1 c-0.4-0.2-0.6-0.6-0.4-1c0.2-0.5,0.3-1,0.4-1.6c0.2-1.4,0.2-2.8-0.1-4.2c-0.4-1.7-1.3-3.3-2.6-4.5c-0.2-0.2-0.3-0.3-0.5-0.4 c-2.9-2.2-6.7-2.9-10.2-1.8c-0.5,0.2-1,0.4-1.5,0.7c-5.9,3.3-8,10.7-4.7,16.6c0,0,0,0,0,0c3.3,6,9.6,9.2,16.8,8.5 c2.5-0.2,4.9-0.9,7.2-1.9c9-4.1,16.7-10.7,22.1-19.1c5.2-7.9,8.2-17.1,8.7-26.6c1-19.6-8.6-37.3-25.7-47.3 c-11.2-6.6-24.8-9.3-39.2-8C52.1,71.3,39.5,76,28.7,83.7c-12.4,9-21.3,22-25.7,37.7c-4.1,14.8-3.9,30.4,0.5,45.1 c5,16.7,15.9,31,30.8,40.1c13.6,8.3,30.1,12.5,47.7,12.1c29.1-0.7,54.8-11.4,76.3-31.7c13.5-12.8,25.4-29.3,35.3-49.3 c1,10.5,1.9,21.2,2.4,31.8c0,0.4,0.1,0.8,0.1,1.1c0.4,6.1,0.9,17.5-0.1,26.5c-0.2,2.3-0.6,5.6-1.2,8.3c-0.7,3.5-1.5,5-2.6,5l0,0 c-0.3,0-0.6-0.2-0.8-0.4c-1.1-1.3-0.5-5.8,0.5-12c0.1-0.7,0.2-1.4,0.3-2c0.7-5.1,1.6-11.8,2.2-18.1c0,0,0-0.1,0-0.1 c-0.1-0.4-0.5-0.7-0.9-0.6c0,0,0,0,0,0c-0.2,0-0.3,0.1-0.4,0.3c-3,5.9-5.7,12-8,18.2c-1.7,4.6-3,9.4-4,14.3 c-1.1,5.8-1.1,10.5,0,14.5c1.1,4.6,4,8.5,8,10.8c5.1,3.1,11.5,3.2,16.8,0.4c5.2-2.8,9-8,11.5-16c1.4-4.7,2.4-9.5,2.8-14.4 c0.7-9,0.9-18.1,0.7-27.2c3.1-4.7,7.6-10.6,12.6-17.4c2.7-3.6,5.5-7.4,8.4-11.3c0.4,12.6,2.4,25.1,6,37.2 c5.3,17.2,13.7,31.5,24.9,42.6c9.9,9.9,22.4,16.9,36,20.1c5,1.1,10,1.7,15.1,1.7c5.8,0,11.6-0.8,17.2-2.3 c10.4-2.9,19.9-8.6,27.3-16.4c3.3-3.6,5.9-7.9,7.5-12.5C377.6,214.5,378,209,376.8,203.6z M89.3,148.8L89.3,148.8h0.1H89.3z"/> <path id="_Контур_4" class="st0" d="M381,208.8c-0.1,9.6-3.8,18.8-10.2,25.9l6.6-1.4c3.2-0.7,6.8-1.4,10.8-2.3l4.3-24.6 C388.4,207.2,384.5,208,381,208.8z"/> <path id="_Составной_контур_2" class="st0" d="M603.4,147.7c-0.2-3.1-0.2-6-0.2-8.7l-0.5,0.5 c-5.3,5.1-11.3,10.9-17.2,15.2c-5.6,4.1-10.3,6.3-13.9,6.4c-1.3,0.1-5,0.2-6.4-1.8c-0.6-0.8-2.3-4.2-1.2-12.8 c0.9-7.2,3.5-15.8,7.6-25c1.5-3.4,2.9-6.4,4.2-9.2h0.1c4.1-9.2,9.5-17.7,16-25.3c0.9-1.1,2.7-1.8,4-1.1c0.9,0.5,1.4,1.5,1.2,2.5 c-0.2,1.2-1.1,2.1-2.3,2.3c-3.9,0.9-9.2,7.9-15.2,19.7c0.5-0.3,0.9-0.5,1.4-0.8c3.3-1.7,6.4-3.7,9.5-5.9 c8.1-5.9,12.8-11.8,14.3-18.2c1.3-5.3,0.1-10.9-3.2-15.2c-3.2-4.5-8.6-6.8-14.1-6.2c-6.7,0.8-13,5.6-19.7,15.3 c-3,4.4-5.8,9-8.3,13.7c-3.2,0.4-6.4-0.1-9.3-1.4l-0.3-0.1c-8-3-13.5-8.1-17.5-16.5c-0.6-1.1-0.5-2.5,0.3-3.5c0.5-0.6,1.3-0.9,2-0.7 c1.2,0.3,1.9,1.6,2.3,3.9c1.1,6.3,7.4,11.6,11.5,13.4l1.5,0.6c0.1-0.2,0.1-0.4,0.2-0.6c3.2-11.8,1.8-21-4.1-27.3 c-4.3-4.5-10.4-6.7-16.6-5.9c-5.7,0.9-10.5,4.6-12.8,9.9c-2.3,4.7-3.2,10-2.6,15.3c0.7,5.6,3.2,11.3,7.5,16.9 c-1.2,2.4-2.6,5-4.3,7.9c-4.7,8.1-9.8,16-15.4,23.6c-5.7,6.6-11.9,12.7-18.7,18.2c6.2-12.6,10.8-26,13.6-39.7c1.5-7.4,1.8-15,1-22.5 c-1.2-9.6-4.5-17.1-9.9-22.5c-5-5-14.1-10.3-28.9-7.2c-1.9,0.4-3.8,1-5.6,1.8c-4,1.6-7.1,4.2-8.2,8c-0.5,1.7-1.2,2.6-2.1,2.7H443 c-0.5,0-1-0.3-1.3-0.7c-0.5-0.8-0.5-1.8,0-2.7c0.9-1.4,1.8-2.7,2.9-3.9c0.3-0.3,0.3-0.7,0-1c-2.9-5.7-9.8-8.1-15.6-5.2 c-3.3,1.6-5.6,4.7-6.2,8.3l-7.9,42.5c-0.1,0.3-0.1,0.6-0.1,0.9l-3.3,17.8c-0.2,0.5-0.4,0.9-0.5,1.4c-5.1,19-10.5,27.7-14.3,31.6 c-3.4,3.6-5.9,3.9-7.8,3.8c-2.3-0.1-4.4-1.2-5.8-3c-2-2.6-5.1-9.3-2.6-25.6c2.6-17.3,7.8-38.4,11.1-51.1l3.1-11.7c0-0.1,0-0.1,0-0.2 s0-0.2,0.1-0.3l0.1-0.3L395,68c0-0.1,0-0.2,0-0.3c0-0.1,0-0.2,0-0.3v-0.3c0-0.1,0-0.2,0-0.3s0-0.2,0-0.3s0-0.2,0-0.3v-0.6 c0-0.1,0-0.2,0-0.3c0-0.1,0-0.2,0-0.3c0-0.1,0-0.2,0-0.3c0-0.1,0-0.2,0-0.3c0-0.1,0-0.2,0-0.3c0-0.1,0-0.2,0-0.3l-0.1-0.3l-0.1-0.3 c0-0.1,0-0.2-0.1-0.3c0-0.1,0-0.2-0.1-0.3c0-0.1,0-0.2-0.1-0.3s0-0.2-0.1-0.3s-0.1-0.2-0.1-0.3l-0.1-0.3c0-0.1-0.1-0.2-0.1-0.3 s-0.1-0.2-0.1-0.3l-0.1-0.3l-0.1-0.2c0-0.1-0.1-0.2-0.1-0.3l-0.1-0.2l-0.1-0.2l-0.1-0.2l-0.1-0.2l-0.2-0.2l-0.2-0.2l-0.2-0.2 l-0.2-0.2l-0.2-0.2l-0.2-0.2l-0.2-0.2l-0.2-0.2l-0.2-0.2l-0.2-0.2l-0.2-0.2l-0.2-0.2l-0.3-0.2l-0.2-0.2l-0.2-0.2l-0.2-0.2l-0.2-0.2 l-0.3-0.2l-0.2-0.1l-0.3-0.2l-0.2-0.1l-0.3-0.1l-0.2-0.1l-0.3-0.1l-0.3-0.1l-0.3-0.1l-0.3-0.1l-0.3-0.1l-0.2-0.1h-0.1h-0.1l-0.2-0.1 l-0.3-0.1l-0.3-0.1h-0.3h-0.3h-0.3h-0.3h-0.2h-0.4h-0.2c-0.2,0-0.4,0-0.6,0H383h-0.4h-0.2h-0.4h-0.2h-0.3h-0.2l-0.3,0.1h-0.2 l-0.3,0.1l-0.2,0.1l-0.3,0.1l-0.2,0.1l-0.3,0.1l-0.2,0.1l-0.3,0.1l-0.2,0.1l-0.3,0.1l-0.2,0.1l-0.3,0.1l-0.2,0.1l-0.3,0.2l-0.2,0.1 c-0.1,0.1-0.2,0.1-0.3,0.2l-0.2,0.1l-0.3,0.2l-0.2,0.2l-0.2,0.2l-0.2,0.2l-0.2,0.2l-0.2,0.2l-0.2,0.2l-0.2,0.2l-0.3,0.3l-0.1,0.1 l-0.4,0.4v0c-0.1,0.1-0.2,0.3-0.3,0.4c0,0-0.1,0.1-0.1,0.1l-0.2,0.3l-0.1,0.2c-0.1,0.1-0.1,0.2-0.2,0.3l-0.1,0.2l-0.2,0.3 c0,0.1-0.1,0.1-0.1,0.2l-0.1,0.3l-0.1,0.2c0,0.1-0.1,0.2-0.1,0.3l-0.1,0.2c0,0.1,0,0.1-0.1,0.2c-1.3-1-2.7-2-4.1-2.8 c-7.2-4-15.5-4.8-24.1-2.2c-8.1,2.5-16.2,8-24.1,16.4c-10.1,10.8-18.2,25.7-22.7,41.9c-4.5,16.1-5,31.5-1.6,43.6 c3.5,12.3,11.2,20.6,21.7,23.5c2.3,0.7,4.7,1,7.1,1c5.4-0.1,10.8-1.4,15.6-3.9c6.3-3.2,12.2-8.2,17.7-14.9c8.2-10.1,0.1-0.1,0.1-0.1 c0.2-0.3,0.2-0.6,0.1-0.9c-0.7-3-1.1-6.1-1.2-9.1c-0.1-0.9,0.4-1.8,1.2-2.3c0.6-0.3,1.3-0.3,1.9,0.1c0.5,0.4,1.2,1.3,0.7,3.4 c-0.9,4.8-0.1,9.7,2.4,13.9c0.5,0.8,1.1,1.6,1.7,2.4c5.5,6.8,13.6,11.1,22.3,11.7c0.7,0.1,1.5,0.1,2.2,0.1c3.8,0,7.6-0.7,11.1-2.1 l-11.1,59.8c-1.2,6.3,3,12.4,9.3,13.5c0.7,0.1,1.4,0.2,2.1,0.2c5.6,0,10.4-4,11.4-9.5l12.7-68.5c1.5,0.9,3.1,1.8,4.7,2.4l0.4,0.2 c6.5,2.9,13.5,4.4,20.6,4.4c6.5,0,13-1.2,19.2-3.3c16.5-5.6,33.2-18.1,49.7-37.2c0.2-0.2,0.3-0.4,0.5-0.6c6.9-9.5,13.3-19.3,19-29.6 l0.4-0.7c2.9,1.4,5.9,2.4,9,3.1c-3.8,8.9-6.4,18.2-7.8,27.8c-1.5,12,0.2,21.7,5.1,28.9c2.8,4.2,6.8,7.4,11.4,9.4 c4.8,2,10,2.8,15.2,2.5c12.9-0.6,24.6-8.6,34.9-17.6C605.1,160.8,603.7,154.3,603.4,147.7z M362.9,93.6c-0.1,2.5-0.4,5-0.9,7.4 c-0.4,2.2-1.1,4.3-1.7,6.5c-9.4,30.3-19.4,43.2-26.2,48.6c-5.5,4.4-9.3,4.1-9.9,4l-0.3-0.1c-2.5-0.7-4.4-3.2-5.6-7.5 c-2.2-7.7-1.6-19.3,1.6-30.9c3.5-12.7,9.7-24.2,17.3-32.3c7.9-8.4,15.3-11.8,19.8-9.8c0.6,0.3,1.2,0.7,1.8,1.1 c1.6,1.6,2.7,3.5,3.2,5.7C362.7,88.7,363,91.1,362.9,93.6z M474.1,102.9c-2.8,14.2-8.5,30-15.2,40.8c-3.5,5.7-7,9.9-10.5,12.5 c-4.1,3.1-7,2.7-7.8,2.6c-2.3-0.4-4.4-1.7-5.7-3.6c-2.5-3.4-3.4-9.2-2.6-16.5l1.6-8.7c0.1-0.4,0.2-0.9,0.3-1.3 c1.4-7.4,5.7-20.2,12.3-31.9c7.2-12.8,13.9-17.8,17.2-18.9c2.3-0.8,5.7-1,7.9,1.1C475.9,83,476.1,92.6,474.1,102.9z"/> </svg>